<svg width="60" height="60" viewBox="0 0 60 60" fill="none" xmlns="http://www.w3.org/2000/svg">
<path d="M29.9998 3.50806C37.0259 3.50806 43.7643 6.29917 48.7325 11.2674C53.7007 16.2356 56.4918 22.9739 56.4918 30.0001C56.4918 37.0262 53.7007 43.7645 48.7325 48.7327C43.7643 53.7009 37.0259 56.4921 29.9998 56.4921C22.9737 56.4921 16.2354 53.7009 11.2671 48.7327C6.29893 43.7645 3.50781 37.0262 3.50781 30.0001C3.50781 22.9739 6.29893 16.2356 11.2671 11.2674C16.2354 6.29917 22.9737 3.50806 29.9998 3.50806ZM29.9998 39.9001C27.1805 39.8986 24.4104 40.6385 21.9672 42.0454C19.524 43.4523 17.4937 45.4769 16.0798 47.9161C20.0575 51.0151 24.9574 52.6948 29.9998 52.6881C35.0413 52.6928 39.9397 51.0117 43.9158 47.9121C42.5018 45.4742 40.4719 43.4508 38.0295 42.0447C35.5871 40.6385 32.8181 39.8989 29.9998 39.9001ZM29.9998 7.30406C25.6026 7.30674 21.3008 8.58672 17.6174 10.9884C13.934 13.3901 11.0276 16.8101 9.25147 20.8327C7.47534 24.8552 6.90599 29.3071 7.61261 33.6472C8.31922 37.9873 10.2714 42.0287 13.2318 45.2801C15.0302 42.4641 17.5092 40.1468 20.44 38.5423C23.3707 36.9378 26.6586 36.0978 29.9998 36.1001C37.0438 36.1001 43.2318 39.7641 46.7678 45.2761C49.7269 42.0245 51.678 37.9835 52.3839 33.6441C53.0898 29.3047 52.5201 24.8537 50.7442 20.8319C48.9682 16.8101 46.0623 13.3907 42.3797 10.9892C38.6971 8.58767 34.3963 7.30744 29.9998 7.30406ZM29.9998 16.6241C31.2568 16.5874 32.5083 16.8033 33.6804 17.259C34.8524 17.7147 35.9211 18.4009 36.8232 19.277C37.7252 20.1531 38.4423 21.2013 38.932 22.3596C39.4217 23.5178 39.674 24.7626 39.674 26.0201C39.674 27.2776 39.4217 28.5223 38.932 29.6805C38.4423 30.8388 37.7252 31.887 36.8232 32.7631C35.9211 33.6392 34.8524 34.3255 33.6804 34.7811C32.5083 35.2368 31.2568 35.4527 29.9998 35.4161C27.5409 35.3653 25.1998 34.3529 23.4787 32.596C21.7576 30.839 20.7937 28.4775 20.7937 26.0181C20.7937 23.5586 21.7576 21.1971 23.4787 19.4402C25.1998 17.6832 27.5409 16.6748 29.9998 16.6241ZM29.9998 20.4161C28.5146 20.4161 27.0902 21.0061 26.04 22.0563C24.9898 23.1065 24.3998 24.5308 24.3998 26.0161C24.3998 27.5013 24.9898 28.9257 26.04 29.9759C27.0902 31.0261 28.5146 31.6161 29.9998 31.6161C31.485 31.6161 32.9094 31.0261 33.9596 29.9759C35.0098 28.9257 35.5998 27.5013 35.5998 26.0161C35.5998 24.5308 35.0098 23.1065 33.9596 22.0563C32.9094 21.0061 31.485 20.4161 29.9998 20.4161Z" fill="currentColor"
/>
</svg>
