<svg width="14" height="14" viewBox="0 0 14 14" fill="none" xmlns="http://www.w3.org/2000/svg">
<path d="M5.33484 4.82035L5.88859 2.88347C6.09609 2.15847 7.12359 2.15847 7.33109 2.88347L7.88422 4.82035C7.91924 4.94287 7.9849 5.05445 8.07501 5.14456C8.16512 5.23466 8.2767 5.30033 8.39922 5.33535L10.3361 5.88847C11.0611 6.09597 11.0611 7.12347 10.3361 7.33097L8.39922 7.8841C8.2767 7.91912 8.16512 7.98478 8.07501 8.07489C7.9849 8.16499 7.91924 8.27657 7.88422 8.3991L7.33109 10.336C7.12359 11.061 6.09609 11.061 5.88859 10.336L5.33547 8.3991C5.30045 8.27657 5.23479 8.16499 5.14468 8.07489C5.05457 7.98478 4.94299 7.91912 4.82047 7.8841L2.88359 7.33097C2.15859 7.12347 2.15859 6.09597 2.88359 5.88847L4.82047 5.33535C4.94299 5.30033 5.05457 5.23466 5.14468 5.14456C5.23479 5.05445 5.30045 4.94287 5.33547 4.82035" fill="currentColor" fill-opacity="0.16"/>
<path d="M5.33469 4.82031L5.88844 2.88344C6.09594 2.15844 7.12344 2.15844 7.33094 2.88344L7.88406 4.82031C7.91908 4.94284 7.98475 5.05442 8.07485 5.14452C8.16496 5.23463 8.27654 5.30029 8.39906 5.33531L10.3359 5.88844C11.0609 6.09594 11.0609 7.12344 10.3359 7.33094L8.39906 7.88406C8.27654 7.91908 8.16496 7.98475 8.07485 8.07485C7.98475 8.16496 7.91908 8.27654 7.88406 8.39906L7.33094 10.3359C7.12344 11.0609 6.09594 11.0609 5.88844 10.3359L5.33531 8.39906C5.30029 8.27654 5.23463 8.16496 5.14452 8.07485C5.05442 7.98475 4.94284 7.91908 4.82031 7.88406L2.88344 7.33094C2.15844 7.12344 2.15844 6.09594 2.88344 5.88844L4.82031 5.33531C4.94284 5.30029 5.05442 5.23463 5.14452 5.14452C5.23463 5.05442 5.30029 4.94284 5.33531 4.82031M1.87844 1.78656L2.11344 0.844688C2.14469 0.718437 2.32469 0.718437 2.35594 0.844688L2.59156 1.78656C2.59698 1.80856 2.60828 1.82866 2.62424 1.84474C2.6402 1.86081 2.66023 1.87224 2.68219 1.87781L3.62469 2.11344C3.75094 2.14469 3.75094 2.32406 3.62469 2.35594L2.68219 2.59156C2.66031 2.59708 2.64033 2.60842 2.62438 2.62438C2.60842 2.64033 2.59708 2.66031 2.59156 2.68219L2.35594 3.62469C2.32469 3.75094 2.14469 3.75094 2.11344 3.62469L1.87781 2.68219C1.87229 2.66031 1.86095 2.64033 1.845 2.62438C1.82904 2.60842 1.80907 2.59708 1.78719 2.59156L0.844688 2.35594C0.718437 2.32469 0.718437 2.14469 0.844688 2.11344L1.78719 1.87781C1.80914 1.87224 1.82917 1.86081 1.84514 1.84474C1.8611 1.82866 1.87302 1.80856 1.87844 1.78656ZM10.6284 10.5372L10.8634 9.59469C10.8947 9.46844 11.0741 9.46844 11.1059 9.59469L11.3416 10.5372C11.3471 10.5591 11.3584 10.579 11.3744 10.595C11.3903 10.611 11.4103 10.6223 11.4322 10.6278L12.3747 10.8634C12.5009 10.8947 12.5009 11.0741 12.3747 11.1059L11.4322 11.3416C11.4103 11.3471 11.3903 11.3584 11.3744 11.3744C11.3584 11.3903 11.3471 11.4103 11.3416 11.4322L11.1059 12.3747C11.0747 12.5009 10.8953 12.5009 10.8634 12.3747L10.6278 11.4322C10.6223 11.4103 10.611 11.3903 10.595 11.3744C10.579 11.3584 10.5591 11.3471 10.5372 11.3416L9.59469 11.1059C9.46844 11.0747 9.46844 10.8947 9.59469 10.8634L10.5372 10.6278C10.5591 10.6223 10.579 10.611 10.595 10.595C10.611 10.579 10.6229 10.5591 10.6284 10.5372Z" stroke="#238B85" stroke-width="1.5" stroke-miterlimit="10" stroke-linecap="round" stroke-linejoin="round"/>
</svg>
