<svg width="17" height="17" viewBox="0 0 17 17" fill="none" xmlns="http://www.w3.org/2000/svg">
<path d="M0.75 9.8453L8.535 2.0603C8.93852 1.64822 9.41974 1.32025 9.95083 1.09535C10.4819 0.870446 11.0523 0.753088 11.6291 0.75006C12.2058 0.747033 12.7774 0.858396 13.3108 1.07771C13.8443 1.29702 14.3289 1.61993 14.7367 2.02775C15.1445 2.43557 15.4674 2.92021 15.6868 3.45363C15.9061 3.98705 16.0174 4.55866 16.0144 5.1354C16.0114 5.71214 15.894 6.28255 15.6691 6.81364C15.4442 7.34473 15.1162 7.82595 14.7042 8.22947L7.4325 15.4995C6.98202 15.9353 6.37829 16.1767 5.75148 16.1716C5.12468 16.1664 4.52501 15.9151 4.08177 15.4719C3.63853 15.0286 3.38724 14.429 3.38208 13.8022C3.37692 13.1753 3.61829 12.5716 4.05417 12.1211L11.0308 5.14364" stroke="black" stroke-opacity="0.5" stroke-width="1.5" stroke-linecap="round" stroke-linejoin="round"/>
</svg>
