<svg xmlns="http://www.w3.org/2000/svg" xmlns:xlink="http://www.w3.org/1999/xlink" width="200" zoomAndPan="magnify" viewBox="0 0 150 157.92" height="200" preserveAspectRatio="xMidYMid meet" version="1.0"><defs><clipPath id="b0b62dfabb"><path d="M 0.0390625 8.3125 L 149.960938 8.3125 L 149.960938 141 L 0.0390625 141 Z M 0.0390625 8.3125 " clip-rule="nonzero"/></clipPath></defs><path fill="#ffffff" d="M 132.097656 47.957031 L 127.859375 47.957031 L 48.570312 92.003906 L 48.570312 109.457031 C 48.570312 116.847656 54.5625 122.839844 61.953125 122.839844 L 123.453125 122.839844 L 145.476562 136.054688 L 145.476562 61.335938 C 145.476562 53.945312 139.488281 47.957031 132.097656 47.957031 Z M 132.097656 47.957031 " fill-opacity="1" fill-rule="nonzero"/><path fill="#ffffff" d="M 127.859375 92.003906 C 123.683594 92.003906 38.109375 92.003906 30.949219 92.003906 L 4.523438 109.625 L 4.523438 26.097656 C 4.523438 18.707031 10.511719 12.714844 17.902344 12.714844 L 114.476562 12.714844 C 121.867188 12.714844 127.859375 18.707031 127.859375 26.097656 C 127.859375 28.632812 127.859375 86.804688 127.859375 92.003906 Z M 127.859375 92.003906 " fill-opacity="1" fill-rule="nonzero"/><path fill="#ffffff" d="M 39.761719 52.359375 C 39.761719 52.9375 39.703125 53.511719 39.589844 54.078125 C 39.480469 54.644531 39.3125 55.195312 39.089844 55.730469 C 38.867188 56.265625 38.597656 56.773438 38.277344 57.253906 C 37.953125 57.734375 37.589844 58.179688 37.179688 58.589844 C 36.773438 59 36.328125 59.363281 35.84375 59.683594 C 35.363281 60.007812 34.855469 60.277344 34.324219 60.5 C 33.789062 60.722656 33.238281 60.886719 32.667969 61 C 32.101562 61.113281 31.53125 61.171875 30.949219 61.171875 C 30.371094 61.171875 29.800781 61.113281 29.234375 61 C 28.664062 60.886719 28.113281 60.722656 27.578125 60.5 C 27.046875 60.277344 26.539062 60.007812 26.058594 59.683594 C 25.574219 59.363281 25.128906 59 24.722656 58.589844 C 24.3125 58.179688 23.949219 57.734375 23.625 57.253906 C 23.304688 56.773438 23.035156 56.265625 22.8125 55.730469 C 22.589844 55.195312 22.421875 54.644531 22.3125 54.078125 C 22.199219 53.511719 22.140625 52.9375 22.140625 52.359375 C 22.140625 51.78125 22.199219 51.207031 22.3125 50.640625 C 22.421875 50.074219 22.589844 49.523438 22.8125 48.988281 C 23.035156 48.453125 23.304688 47.945312 23.625 47.464844 C 23.949219 46.984375 24.3125 46.539062 24.722656 46.128906 C 25.128906 45.722656 25.574219 45.355469 26.058594 45.035156 C 26.539062 44.714844 27.046875 44.441406 27.578125 44.222656 C 28.113281 44 28.664062 43.832031 29.234375 43.71875 C 29.800781 43.605469 30.371094 43.550781 30.949219 43.550781 C 31.53125 43.550781 32.101562 43.605469 32.667969 43.71875 C 33.238281 43.832031 33.789062 44 34.324219 44.222656 C 34.855469 44.441406 35.363281 44.714844 35.84375 45.035156 C 36.328125 45.355469 36.773438 45.722656 37.179688 46.128906 C 37.589844 46.539062 37.953125 46.984375 38.277344 47.464844 C 38.597656 47.945312 38.867188 48.453125 39.089844 48.988281 C 39.3125 49.523438 39.480469 50.074219 39.589844 50.640625 C 39.703125 51.207031 39.761719 51.78125 39.761719 52.359375 Z M 39.761719 52.359375 " fill-opacity="1" fill-rule="nonzero"/><path fill="#ffffff" d="M 75 52.359375 C 75 52.9375 74.945312 53.511719 74.832031 54.078125 C 74.71875 54.644531 74.550781 55.195312 74.328125 55.730469 C 74.109375 56.265625 73.835938 56.773438 73.515625 57.253906 C 73.195312 57.734375 72.828125 58.179688 72.417969 58.589844 C 72.011719 59 71.566406 59.363281 71.085938 59.683594 C 70.605469 60.007812 70.097656 60.277344 69.5625 60.5 C 69.027344 60.722656 68.476562 60.886719 67.910156 61 C 67.339844 61.113281 66.769531 61.171875 66.191406 61.171875 C 65.613281 61.171875 65.039062 61.113281 64.472656 61 C 63.902344 60.886719 63.351562 60.722656 62.820312 60.5 C 62.285156 60.277344 61.777344 60.007812 61.296875 59.683594 C 60.816406 59.363281 60.371094 59 59.960938 58.589844 C 59.550781 58.179688 59.1875 57.734375 58.863281 57.253906 C 58.542969 56.773438 58.273438 56.265625 58.050781 55.730469 C 57.828125 55.195312 57.664062 54.644531 57.550781 54.078125 C 57.4375 53.511719 57.378906 52.9375 57.378906 52.359375 C 57.378906 51.78125 57.4375 51.207031 57.550781 50.640625 C 57.664062 50.074219 57.828125 49.523438 58.050781 48.988281 C 58.273438 48.453125 58.542969 47.945312 58.863281 47.464844 C 59.1875 46.984375 59.550781 46.539062 59.960938 46.128906 C 60.371094 45.722656 60.816406 45.355469 61.296875 45.035156 C 61.777344 44.714844 62.285156 44.441406 62.820312 44.222656 C 63.351562 44 63.902344 43.832031 64.472656 43.71875 C 65.039062 43.605469 65.613281 43.550781 66.191406 43.550781 C 66.769531 43.550781 67.339844 43.605469 67.910156 43.71875 C 68.476562 43.832031 69.027344 44 69.5625 44.222656 C 70.097656 44.441406 70.605469 44.714844 71.085938 45.035156 C 71.566406 45.355469 72.011719 45.722656 72.417969 46.128906 C 72.828125 46.539062 73.195312 46.984375 73.515625 47.464844 C 73.835938 47.945312 74.109375 48.453125 74.328125 48.988281 C 74.550781 49.523438 74.71875 50.074219 74.832031 50.640625 C 74.945312 51.207031 75 51.78125 75 52.359375 Z M 75 52.359375 " fill-opacity="1" fill-rule="nonzero"/><path fill="#ffffff" d="M 110.238281 52.359375 C 110.238281 52.9375 110.183594 53.511719 110.070312 54.078125 C 109.957031 54.644531 109.789062 55.195312 109.570312 55.730469 C 109.347656 56.265625 109.074219 56.773438 108.753906 57.253906 C 108.433594 57.734375 108.066406 58.179688 107.660156 58.589844 C 107.25 59 106.804688 59.363281 106.324219 59.683594 C 105.84375 60.007812 105.335938 60.277344 104.800781 60.5 C 104.265625 60.722656 103.714844 60.886719 103.148438 61 C 102.582031 61.113281 102.007812 61.171875 101.429688 61.171875 C 100.851562 61.171875 100.277344 61.113281 99.710938 61 C 99.144531 60.886719 98.59375 60.722656 98.058594 60.5 C 97.523438 60.277344 97.015625 60.007812 96.535156 59.683594 C 96.054688 59.363281 95.609375 59 95.199219 58.589844 C 94.789062 58.179688 94.425781 57.734375 94.105469 57.253906 C 93.78125 56.773438 93.511719 56.265625 93.289062 55.730469 C 93.070312 55.195312 92.902344 54.644531 92.789062 54.078125 C 92.675781 53.511719 92.621094 52.9375 92.621094 52.359375 C 92.621094 51.78125 92.675781 51.207031 92.789062 50.640625 C 92.902344 50.074219 93.070312 49.523438 93.289062 48.988281 C 93.511719 48.453125 93.78125 47.945312 94.105469 47.464844 C 94.425781 46.984375 94.789062 46.539062 95.199219 46.128906 C 95.609375 45.722656 96.054688 45.355469 96.535156 45.035156 C 97.015625 44.714844 97.523438 44.441406 98.058594 44.222656 C 98.59375 44 99.144531 43.832031 99.710938 43.71875 C 100.277344 43.605469 100.851562 43.550781 101.429688 43.550781 C 102.007812 43.550781 102.582031 43.605469 103.148438 43.71875 C 103.714844 43.832031 104.265625 44 104.800781 44.222656 C 105.335938 44.441406 105.84375 44.714844 106.324219 45.035156 C 106.804688 45.355469 107.25 45.722656 107.660156 46.128906 C 108.066406 46.539062 108.433594 46.984375 108.753906 47.464844 C 109.074219 47.945312 109.347656 48.453125 109.570312 48.988281 C 109.789062 49.523438 109.957031 50.074219 110.070312 50.640625 C 110.183594 51.207031 110.238281 51.78125 110.238281 52.359375 Z M 110.238281 52.359375 " fill-opacity="1" fill-rule="nonzero"/><path fill="#000000" d="M 66.191406 65.574219 C 73.476562 65.574219 79.40625 59.648438 79.40625 52.359375 C 79.40625 45.074219 73.476562 39.144531 66.191406 39.144531 C 58.902344 39.144531 52.976562 45.074219 52.976562 52.359375 C 52.976562 59.648438 58.902344 65.574219 66.191406 65.574219 Z M 66.191406 47.957031 C 68.617188 47.957031 70.59375 49.929688 70.59375 52.359375 C 70.59375 54.789062 68.617188 56.765625 66.191406 56.765625 C 63.761719 56.765625 61.785156 54.789062 61.785156 52.359375 C 61.785156 49.929688 63.761719 47.957031 66.191406 47.957031 Z M 66.191406 47.957031 " fill-opacity="1" fill-rule="nonzero"/><path fill="#000000" d="M 30.949219 39.144531 C 23.664062 39.144531 17.738281 45.074219 17.738281 52.359375 C 17.738281 59.648438 23.664062 65.574219 30.949219 65.574219 C 38.238281 65.574219 44.164062 59.648438 44.164062 52.359375 C 44.164062 45.074219 38.238281 39.144531 30.949219 39.144531 Z M 30.949219 56.765625 C 28.523438 56.765625 26.546875 54.789062 26.546875 52.359375 C 26.546875 49.929688 28.523438 47.957031 30.949219 47.957031 C 33.378906 47.957031 35.355469 49.929688 35.355469 52.359375 C 35.355469 54.789062 33.378906 56.765625 30.949219 56.765625 Z M 30.949219 56.765625 " fill-opacity="1" fill-rule="nonzero"/><path fill="#000000" d="M 101.429688 65.574219 C 108.714844 65.574219 114.644531 59.648438 114.644531 52.359375 C 114.644531 45.074219 108.714844 39.144531 101.429688 39.144531 C 94.144531 39.144531 88.214844 45.074219 88.214844 52.359375 C 88.214844 59.648438 94.144531 65.574219 101.429688 65.574219 Z M 101.429688 47.957031 C 103.859375 47.957031 105.835938 49.929688 105.835938 52.359375 C 105.835938 54.789062 103.859375 56.765625 101.429688 56.765625 C 99 56.765625 97.023438 54.789062 97.023438 52.359375 C 97.023438 49.929688 99 47.957031 101.429688 47.957031 Z M 101.429688 47.957031 " fill-opacity="1" fill-rule="nonzero"/><g clip-path="url(#b0b62dfabb)"><path fill="#000000" d="M 132.261719 43.554688 L 132.261719 26.097656 C 132.261719 16.289062 124.285156 8.3125 114.476562 8.3125 L 17.902344 8.3125 C 8.097656 8.3125 0.117188 16.289062 0.117188 26.097656 L 0.117188 109.625 C 0.117188 113.136719 4.042969 115.238281 6.964844 113.289062 L 32.285156 96.410156 L 44.164062 96.410156 L 44.164062 109.457031 C 44.164062 119.265625 52.144531 127.242188 61.953125 127.242188 L 122.234375 127.242188 L 143.210938 139.832031 C 146.144531 141.589844 149.882812 139.472656 149.882812 136.054688 L 149.882812 61.335938 C 149.882812 51.585938 141.992188 43.644531 132.261719 43.554688 Z M 30.949219 87.597656 C 30.082031 87.597656 29.230469 87.855469 28.507812 88.339844 L 8.925781 101.394531 L 8.925781 26.097656 C 8.925781 21.148438 12.953125 17.121094 17.902344 17.121094 L 114.476562 17.121094 C 119.425781 17.121094 123.453125 21.148438 123.453125 26.097656 L 123.453125 87.597656 Z M 141.074219 128.273438 L 125.71875 119.0625 C 125.035156 118.652344 124.253906 118.433594 123.453125 118.433594 L 61.953125 118.433594 C 57.003906 118.433594 52.976562 114.40625 52.976562 109.457031 L 52.976562 96.410156 L 127.859375 96.410156 C 130.292969 96.410156 132.261719 94.4375 132.261719 92.003906 L 132.261719 52.363281 C 137.136719 52.453125 141.074219 56.445312 141.074219 61.335938 Z M 141.074219 128.273438 " fill-opacity="1" fill-rule="nonzero"/></g></svg>