<svg xmlns="http://www.w3.org/2000/svg" xmlns:xlink="http://www.w3.org/1999/xlink" width="200" zoomAndPan="magnify" viewBox="0 0 150 157.92" height="200" preserveAspectRatio="xMidYMid meet" version="1.0"><defs><clipPath id="2c5596c7bc"><path d="M 0.0390625 0 L 68 0 L 68 68 L 0.0390625 68 Z M 0.0390625 0 " clip-rule="nonzero"/></clipPath><clipPath id="fbf4671b31"><path d="M 83 0 L 149.960938 0 L 149.960938 68 L 83 68 Z M 83 0 " clip-rule="nonzero"/></clipPath><clipPath id="dbcb30bb63"><path d="M 0.0390625 82 L 68 82 L 68 149.925781 L 0.0390625 149.925781 Z M 0.0390625 82 " clip-rule="nonzero"/></clipPath><clipPath id="7b24e80eee"><path d="M 83 82 L 149.960938 82 L 149.960938 149.925781 L 83 149.925781 Z M 83 82 " clip-rule="nonzero"/></clipPath></defs><g clip-path="url(#2c5596c7bc)"><path fill="#010101" d="M 3.433594 0.0390625 L 63.753906 0.0390625 C 64.199219 0.0390625 64.625 0.125 65.035156 0.296875 C 65.449219 0.464844 65.808594 0.707031 66.125 1.023438 C 66.441406 1.335938 66.683594 1.699219 66.851562 2.113281 C 67.023438 2.523438 67.109375 2.949219 67.109375 3.394531 L 67.109375 63.714844 C 67.109375 64.160156 67.023438 64.585938 66.851562 65 C 66.683594 65.410156 66.441406 65.773438 66.125 66.085938 C 65.808594 66.402344 65.449219 66.644531 65.035156 66.8125 C 64.625 66.984375 64.199219 67.070312 63.753906 67.070312 L 3.433594 67.070312 C 2.988281 67.070312 2.5625 66.984375 2.148438 66.8125 C 1.738281 66.644531 1.375 66.402344 1.0625 66.085938 C 0.746094 65.773438 0.503906 65.410156 0.332031 65 C 0.164062 64.585938 0.078125 64.160156 0.078125 63.714844 L 0.078125 3.394531 C 0.078125 2.949219 0.164062 2.523438 0.332031 2.113281 C 0.503906 1.699219 0.746094 1.335938 1.0625 1.023438 C 1.375 0.707031 1.738281 0.464844 2.148438 0.296875 C 2.5625 0.125 2.988281 0.0390625 3.433594 0.0390625 Z M 3.433594 0.0390625 " fill-opacity="1" fill-rule="nonzero"/></g><g clip-path="url(#fbf4671b31)"><path fill="#010101" d="M 86.382812 0.0390625 L 146.699219 0.0390625 C 147.144531 0.0390625 147.574219 0.125 147.984375 0.296875 C 148.394531 0.464844 148.757812 0.707031 149.074219 1.023438 C 149.386719 1.335938 149.628906 1.699219 149.800781 2.113281 C 149.972656 2.523438 150.054688 2.949219 150.054688 3.394531 L 150.054688 63.714844 C 150.054688 64.160156 149.972656 64.585938 149.800781 65 C 149.628906 65.410156 149.386719 65.773438 149.074219 66.085938 C 148.757812 66.402344 148.394531 66.644531 147.984375 66.8125 C 147.574219 66.984375 147.144531 67.070312 146.699219 67.070312 L 86.382812 67.070312 C 85.9375 67.070312 85.507812 66.984375 85.097656 66.8125 C 84.6875 66.644531 84.324219 66.402344 84.007812 66.085938 C 83.695312 65.773438 83.453125 65.410156 83.28125 65 C 83.113281 64.585938 83.027344 64.160156 83.027344 63.714844 L 83.027344 3.394531 C 83.027344 2.949219 83.113281 2.523438 83.28125 2.113281 C 83.453125 1.699219 83.695312 1.335938 84.007812 1.023438 C 84.324219 0.707031 84.6875 0.464844 85.097656 0.296875 C 85.507812 0.125 85.9375 0.0390625 86.382812 0.0390625 Z M 86.382812 0.0390625 " fill-opacity="1" fill-rule="nonzero"/></g><g clip-path="url(#dbcb30bb63)"><path fill="#010101" d="M 3.433594 82.988281 L 63.753906 82.988281 C 64.199219 82.988281 64.625 83.074219 65.035156 83.242188 C 65.449219 83.414062 65.808594 83.65625 66.125 83.972656 C 66.441406 84.285156 66.683594 84.648438 66.851562 85.058594 C 67.023438 85.472656 67.109375 85.898438 67.109375 86.34375 L 67.109375 146.664062 C 67.109375 147.109375 67.023438 147.535156 66.851562 147.945312 C 66.683594 148.359375 66.441406 148.71875 66.125 149.035156 C 65.808594 149.351562 65.449219 149.59375 65.035156 149.761719 C 64.625 149.933594 64.199219 150.019531 63.753906 150.019531 L 3.433594 150.019531 C 2.988281 150.019531 2.5625 149.933594 2.148438 149.761719 C 1.738281 149.59375 1.375 149.351562 1.0625 149.035156 C 0.746094 148.71875 0.503906 148.359375 0.332031 147.945312 C 0.164062 147.535156 0.078125 147.109375 0.078125 146.664062 L 0.078125 86.34375 C 0.078125 85.898438 0.164062 85.472656 0.332031 85.058594 C 0.503906 84.648438 0.746094 84.285156 1.0625 83.972656 C 1.375 83.65625 1.738281 83.414062 2.148438 83.242188 C 2.5625 83.074219 2.988281 82.988281 3.433594 82.988281 Z M 3.433594 82.988281 " fill-opacity="1" fill-rule="nonzero"/></g><g clip-path="url(#7b24e80eee)"><path fill="#010101" d="M 86.382812 82.988281 L 146.699219 82.988281 C 147.144531 82.988281 147.574219 83.074219 147.984375 83.242188 C 148.394531 83.414062 148.757812 83.65625 149.074219 83.972656 C 149.386719 84.285156 149.628906 84.648438 149.800781 85.058594 C 149.972656 85.472656 150.054688 85.898438 150.054688 86.34375 L 150.054688 146.664062 C 150.054688 147.109375 149.972656 147.535156 149.800781 147.945312 C 149.628906 148.359375 149.386719 148.71875 149.074219 149.035156 C 148.757812 149.351562 148.394531 149.59375 147.984375 149.761719 C 147.574219 149.933594 147.144531 150.019531 146.699219 150.019531 L 86.382812 150.019531 C 85.9375 150.019531 85.507812 149.933594 85.097656 149.761719 C 84.6875 149.59375 84.324219 149.351562 84.007812 149.035156 C 83.695312 148.71875 83.453125 148.359375 83.28125 147.945312 C 83.113281 147.535156 83.027344 147.109375 83.027344 146.664062 L 83.027344 86.34375 C 83.027344 85.898438 83.113281 85.472656 83.28125 85.058594 C 83.453125 84.648438 83.695312 84.285156 84.007812 83.972656 C 84.324219 83.65625 84.6875 83.414062 85.097656 83.242188 C 85.507812 83.074219 85.9375 82.988281 86.382812 82.988281 Z M 86.382812 82.988281 " fill-opacity="1" fill-rule="nonzero"/></g></svg>