<svg xmlns="http://www.w3.org/2000/svg" xmlns:xlink="http://www.w3.org/1999/xlink" width="200" zoomAndPan="magnify" viewBox="0 0 150 157.92" height="200" preserveAspectRatio="xMidYMid meet" version="1.0"><defs><clipPath id="e1555821c0"><path d="M 0.0390625 0 L 149.960938 0 L 149.960938 149.925781 L 0.0390625 149.925781 Z M 0.0390625 0 " clip-rule="nonzero"/></clipPath></defs><g clip-path="url(#e1555821c0)"><path fill="#000000" d="M 37.519531 0 C 34.5625 0 32.164062 2.398438 32.164062 5.355469 L 32.164062 10.707031 L 21.457031 10.707031 C 9.6875 10.707031 0.0390625 20.359375 0.0390625 32.125 L 0.0390625 128.507812 C 0.0390625 140.273438 9.6875 149.925781 21.457031 149.925781 L 128.542969 149.925781 C 140.3125 149.925781 149.960938 140.273438 149.960938 128.507812 L 149.960938 32.125 C 149.960938 20.359375 140.3125 10.707031 128.542969 10.707031 L 117.835938 10.707031 L 117.835938 5.355469 C 117.835938 2.398438 115.4375 0 112.480469 0 C 109.523438 0 107.125 2.398438 107.125 5.355469 L 107.125 10.707031 L 80.355469 10.707031 L 80.355469 5.355469 C 80.355469 2.398438 77.957031 0 75 0 C 72.042969 0 69.644531 2.398438 69.644531 5.355469 L 69.644531 10.707031 L 42.875 10.707031 L 42.875 5.355469 C 42.875 2.398438 40.476562 0 37.519531 0 Z M 21.457031 21.417969 L 32.164062 21.417969 L 32.164062 26.773438 C 32.164062 29.726562 34.5625 32.125 37.519531 32.125 C 40.476562 32.125 42.875 29.726562 42.875 26.773438 L 42.875 21.417969 L 69.644531 21.417969 L 69.644531 26.773438 C 69.644531 29.726562 72.042969 32.125 75 32.125 C 77.957031 32.125 80.355469 29.726562 80.355469 26.773438 L 80.355469 21.417969 L 107.125 21.417969 L 107.125 26.773438 C 107.125 29.726562 109.523438 32.125 112.480469 32.125 C 115.4375 32.125 117.835938 29.726562 117.835938 26.773438 L 117.835938 21.417969 L 128.542969 21.417969 C 134.566406 21.417969 139.253906 26.101562 139.253906 32.125 L 139.253906 42.835938 L 10.746094 42.835938 L 10.746094 32.125 C 10.746094 26.101562 15.433594 21.417969 21.457031 21.417969 Z M 10.746094 53.542969 L 139.253906 53.542969 L 139.253906 128.507812 C 139.253906 134.53125 134.566406 139.214844 128.542969 139.214844 L 21.457031 139.214844 C 15.433594 139.214844 10.746094 134.53125 10.746094 128.507812 Z M 10.746094 53.542969 " fill-opacity="1" fill-rule="nonzero"/></g><path fill="#000000" d="M 29.515625 69.636719 L 40.195312 69.636719 C 41.675781 69.636719 42.875 70.808594 42.875 72.3125 L 42.875 82.992188 C 42.875 84.472656 41.675781 85.671875 40.195312 85.671875 L 29.515625 85.671875 C 28.007812 85.671875 26.839844 84.472656 26.839844 82.992188 L 26.839844 72.3125 C 26.839844 70.808594 28.007812 69.636719 29.515625 69.636719 Z M 29.515625 69.636719 " fill-opacity="1" fill-rule="nonzero"/><path fill="#000000" d="M 56.257812 69.636719 L 66.941406 69.636719 C 68.445312 69.636719 69.617188 70.808594 69.617188 72.3125 L 69.617188 82.992188 C 69.617188 84.472656 68.445312 85.671875 66.941406 85.671875 L 56.257812 85.671875 C 54.78125 85.671875 53.582031 84.472656 53.582031 82.992188 L 53.582031 72.3125 C 53.582031 70.808594 54.78125 69.636719 56.257812 69.636719 Z M 56.257812 69.636719 " fill-opacity="1" fill-rule="nonzero"/><path fill="#000000" d="M 83.058594 69.636719 L 93.742188 69.636719 C 95.21875 69.636719 96.417969 70.808594 96.417969 72.3125 L 96.417969 82.992188 C 96.417969 84.472656 95.21875 85.671875 93.742188 85.671875 L 83.058594 85.671875 C 81.554688 85.671875 80.382812 84.472656 80.382812 82.992188 L 80.382812 72.3125 C 80.382812 70.808594 81.554688 69.636719 83.058594 69.636719 Z M 83.058594 69.636719 " fill-opacity="1" fill-rule="nonzero"/><path fill="#000000" d="M 109.804688 69.636719 L 120.484375 69.636719 C 121.992188 69.636719 123.160156 70.808594 123.160156 72.3125 L 123.160156 82.992188 C 123.160156 84.472656 121.992188 85.671875 120.484375 85.671875 L 109.804688 85.671875 C 108.324219 85.671875 107.125 84.472656 107.125 82.992188 L 107.125 72.3125 C 107.125 70.808594 108.324219 69.636719 109.804688 69.636719 Z M 109.804688 69.636719 " fill-opacity="1" fill-rule="nonzero"/><path fill="#000000" d="M 29.515625 101.734375 L 40.195312 101.734375 C 41.675781 101.734375 42.875 102.933594 42.875 104.410156 L 42.875 115.09375 C 42.875 116.597656 41.675781 117.769531 40.195312 117.769531 L 29.515625 117.769531 C 28.007812 117.769531 26.839844 116.597656 26.839844 115.09375 L 26.839844 104.410156 C 26.839844 102.933594 28.007812 101.734375 29.515625 101.734375 Z M 29.515625 101.734375 " fill-opacity="1" fill-rule="nonzero"/><path fill="#000000" d="M 56.257812 101.734375 L 66.941406 101.734375 C 68.445312 101.734375 69.617188 102.933594 69.617188 104.410156 L 69.617188 115.09375 C 69.617188 116.597656 68.445312 117.769531 66.941406 117.769531 L 56.257812 117.769531 C 54.78125 117.769531 53.582031 116.597656 53.582031 115.09375 L 53.582031 104.410156 C 53.582031 102.933594 54.78125 101.734375 56.257812 101.734375 Z M 56.257812 101.734375 " fill-opacity="1" fill-rule="nonzero"/><path fill="#000000" d="M 83.058594 101.734375 L 93.742188 101.734375 C 95.21875 101.734375 96.417969 102.933594 96.417969 104.410156 L 96.417969 115.09375 C 96.417969 116.597656 95.21875 117.769531 93.742188 117.769531 L 83.058594 117.769531 C 81.554688 117.769531 80.382812 116.597656 80.382812 115.09375 L 80.382812 104.410156 C 80.382812 102.933594 81.554688 101.734375 83.058594 101.734375 Z M 83.058594 101.734375 " fill-opacity="1" fill-rule="nonzero"/><path fill="#000000" d="M 109.804688 101.734375 L 120.484375 101.734375 C 121.992188 101.734375 123.160156 102.933594 123.160156 104.410156 L 123.160156 115.09375 C 123.160156 116.597656 121.992188 117.769531 120.484375 117.769531 L 109.804688 117.769531 C 108.324219 117.769531 107.125 116.597656 107.125 115.09375 L 107.125 104.410156 C 107.125 102.933594 108.324219 101.734375 109.804688 101.734375 Z M 109.804688 101.734375 " fill-opacity="1" fill-rule="nonzero"/></svg>