<svg width="15" height="15" viewBox="0 0 15 15" fill="none" xmlns="http://www.w3.org/2000/svg">
<path d="M9.375 0.46875C9.375 1.34277 9.53613 2.14844 9.8584 2.88574C10.1807 3.62305 10.6445 4.30176 11.25 4.92188C11.8555 5.54199 12.3193 6.2207 12.6416 6.95801C12.9639 7.69531 13.125 8.50098 13.125 9.375C13.125 9.89258 13.0591 10.3906 12.9272 10.8691C12.7954 11.3477 12.605 11.7944 12.356 12.2095C12.1069 12.6245 11.814 13.0054 11.4771 13.3521C11.1401 13.6987 10.7617 13.9917 10.3418 14.231C9.92188 14.4702 9.47266 14.6582 8.99414 14.7949C8.51562 14.9316 8.01758 15 7.5 15C6.98242 15 6.48438 14.9341 6.00586 14.8022C5.52734 14.6704 5.08057 14.48 4.66553 14.231C4.25049 13.9819 3.86963 13.689 3.52295 13.3521C3.17627 13.0151 2.8833 12.6367 2.64404 12.2168C2.40479 11.7969 2.2168 11.3477 2.08008 10.8691C1.94336 10.3906 1.875 9.89258 1.875 9.375C1.875 8.96484 1.91895 8.56201 2.00684 8.1665C2.09473 7.771 2.22168 7.39258 2.3877 7.03125C2.55371 6.66992 2.75879 6.32568 3.00293 5.99854C3.24707 5.67139 3.52295 5.37598 3.83057 5.1123C3.86475 5.29785 3.91113 5.48828 3.96973 5.68359C4.02832 5.87891 4.09668 6.07422 4.1748 6.26953C4.25293 6.46484 4.3457 6.65039 4.45312 6.82617C4.56055 7.00195 4.67285 7.16553 4.79004 7.31689C4.8877 7.43896 5.01465 7.5 5.1709 7.5C5.30273 7.5 5.4126 7.45361 5.50049 7.36084C5.58838 7.26807 5.63477 7.15576 5.63965 7.02393C5.63965 6.97021 5.63232 6.92139 5.61768 6.87744C5.60303 6.8335 5.57861 6.78955 5.54443 6.74561C5.40771 6.54541 5.28809 6.34766 5.18555 6.15234C5.08301 5.95703 4.99268 5.75684 4.91455 5.55176C4.83643 5.34668 4.78027 5.13428 4.74609 4.91455C4.71191 4.69482 4.69238 4.46289 4.6875 4.21875C4.6875 3.6377 4.79736 3.09082 5.01709 2.57812C5.23682 2.06543 5.53955 1.61865 5.92529 1.23779C6.31104 0.856934 6.75781 0.556641 7.26562 0.336914C7.77344 0.117188 8.32031 0.00488281 8.90625 0H9.375V0.46875ZM7.5 14.0625C8.14941 14.0625 8.75732 13.9404 9.32373 13.6963C9.89014 13.4521 10.3882 13.1177 10.8179 12.6929C11.2476 12.2681 11.582 11.7725 11.8213 11.2061C12.0605 10.6396 12.1826 10.0293 12.1875 9.375C12.1875 8.6377 12.0508 7.95166 11.7773 7.31689C11.5039 6.68213 11.1084 6.10596 10.5908 5.58838C9.95605 4.94873 9.45801 4.24316 9.09668 3.47168C8.73535 2.7002 8.52051 1.86523 8.45215 0.966797C8.04688 1.02051 7.67334 1.14258 7.33154 1.33301C6.98975 1.52344 6.68945 1.76514 6.43066 2.05811C6.17188 2.35107 5.97412 2.68066 5.8374 3.04688C5.70068 3.41309 5.62988 3.80371 5.625 4.21875C5.625 4.59961 5.68115 4.94385 5.79346 5.25146C5.90576 5.55908 6.07178 5.8667 6.2915 6.17432C6.38428 6.30127 6.45508 6.43311 6.50391 6.56982C6.55273 6.70654 6.57959 6.85791 6.58447 7.02393C6.58447 7.21924 6.54785 7.40234 6.47461 7.57324C6.40137 7.74414 6.29883 7.89307 6.16699 8.02002C6.03516 8.14697 5.88623 8.24951 5.72021 8.32764C5.5542 8.40576 5.37109 8.44238 5.1709 8.4375C4.94629 8.4375 4.74854 8.396 4.57764 8.31299C4.40674 8.22998 4.25537 8.11768 4.12354 7.97607C3.9917 7.83447 3.87451 7.67578 3.77197 7.5C3.66943 7.32422 3.57178 7.14844 3.479 6.97266C3.25439 7.3291 3.08838 7.7124 2.98096 8.12256C2.87354 8.53271 2.81738 8.9502 2.8125 9.375C2.8125 10.0244 2.93457 10.6323 3.17871 11.1987C3.42285 11.7651 3.75732 12.2632 4.18213 12.6929C4.60693 13.1226 5.10254 13.457 5.66895 13.6963C6.23535 13.9355 6.8457 14.0576 7.5 14.0625Z" fill="black"/>
</svg>
