<svg width="50" height="50" viewBox="0 0 50 50" fill="none" xmlns="http://www.w3.org/2000/svg">
<path d="M41.6665 8.33329H35.0623L31.2498 4.16663H18.7498L14.9373 8.33329H8.33317C7.2281 8.33329 6.16829 8.77228 5.38689 9.55368C4.60549 10.3351 4.1665 11.3949 4.1665 12.5V37.5C4.1665 38.605 4.60549 39.6648 5.38689 40.4462C6.16829 41.2276 7.2281 41.6666 8.33317 41.6666H41.6665C42.7716 41.6666 43.8314 41.2276 44.6128 40.4462C45.3942 39.6648 45.8332 38.605 45.8332 37.5V12.5C45.8332 11.3949 45.3942 10.3351 44.6128 9.55368C43.8314 8.77228 42.7716 8.33329 41.6665 8.33329ZM41.6665 37.5H8.33317V12.5H16.7707L20.5832 8.33329H29.4165L33.229 12.5H41.6665V37.5ZM24.9998 14.5833C22.2372 14.5833 19.5876 15.6808 17.6341 17.6343C15.6806 19.5878 14.5832 22.2373 14.5832 25C14.5832 27.7626 15.6806 30.4121 17.6341 32.3657C19.5876 34.3192 22.2372 35.4166 24.9998 35.4166C27.7625 35.4166 30.412 34.3192 32.3655 32.3657C34.319 30.4121 35.4165 27.7626 35.4165 25C35.4165 22.2373 34.319 19.5878 32.3655 17.6343C30.412 15.6808 27.7625 14.5833 24.9998 14.5833ZM24.9998 31.25C23.3422 31.25 21.7525 30.5915 20.5804 29.4194C19.4083 28.2473 18.7498 26.6576 18.7498 25C18.7498 23.3424 19.4083 21.7526 20.5804 20.5805C21.7525 19.4084 23.3422 18.75 24.9998 18.75C26.6574 18.75 28.2472 19.4084 29.4193 20.5805C30.5914 21.7526 31.2498 23.3424 31.2498 25C31.2498 26.6576 30.5914 28.2473 29.4193 29.4194C28.2472 30.5915 26.6574 31.25 24.9998 31.25Z" fill="#238B85"/>
</svg>
