<svg width="30" height="30" viewBox="0 0 30 30" fill="none" xmlns="http://www.w3.org/2000/svg">
<path d="M25.8912 10.1599L25.5837 10.8674C25.5357 10.9826 25.4546 11.081 25.3507 11.1502C25.2469 11.2194 25.1248 11.2564 25 11.2564C24.8752 11.2564 24.7531 11.2194 24.6493 11.1502C24.5454 11.081 24.4643 10.9826 24.4163 10.8674L24.1088 10.1599C23.5681 8.90829 22.578 7.90479 21.3337 7.34739L20.385 6.92364C20.2699 6.87069 20.1724 6.78585 20.104 6.67917C20.0357 6.5725 19.9994 6.44846 19.9994 6.32176C19.9994 6.19507 20.0357 6.07103 20.104 5.96435C20.1724 5.85767 20.2699 5.77283 20.385 5.71989L21.2812 5.32114C22.5568 4.74786 23.5638 3.70724 24.095 2.41364L24.4112 1.64989C24.4577 1.53158 24.5387 1.43001 24.6437 1.35842C24.7487 1.28683 24.8729 1.24854 25 1.24854C25.1271 1.24854 25.2513 1.28683 25.3563 1.35842C25.4613 1.43001 25.5423 1.53158 25.5888 1.64989L25.905 2.41239C26.4356 3.70623 27.4422 4.7473 28.7175 5.32114L29.615 5.72114C29.7298 5.77424 29.8269 5.85906 29.895 5.9656C29.9631 6.07214 29.9993 6.19594 29.9993 6.32239C29.9993 6.44883 29.9631 6.57263 29.895 6.67917C29.8269 6.78571 29.7298 6.87054 29.615 6.92364L28.665 7.34614C27.421 7.90409 26.4313 8.90804 25.8912 10.1599ZM12.5 3.74989H17.5V6.24989H12.5C10.5109 6.24989 8.60322 7.04006 7.1967 8.44659C5.79018 9.85311 5 11.7608 5 13.7499C5 18.2624 8.0775 21.2074 15 24.3499V21.2499H17.5C19.4891 21.2499 21.3968 20.4597 22.8033 19.0532C24.2098 17.6467 25 15.739 25 13.7499H27.5C27.5 16.4021 26.4464 18.9456 24.5711 20.821C22.6957 22.6963 20.1522 23.7499 17.5 23.7499V28.1249C11.25 25.6249 2.5 21.8749 2.5 13.7499C2.5 11.0977 3.55357 8.55418 5.42893 6.67882C7.3043 4.80345 9.84784 3.74989 12.5 3.74989Z" fill="currentColor"/>
</svg>
