<svg width="21" height="21" viewBox="0 0 21 21" fill="none" xmlns="http://www.w3.org/2000/svg">
<path d="M1 10.375C1 11.6061 1.24249 12.8252 1.71363 13.9627C2.18477 15.1001 2.87532 16.1336 3.74587 17.0041C4.61642 17.8747 5.64992 18.5652 6.78734 19.0364C7.92477 19.5075 9.14386 19.75 10.375 19.75C11.6061 19.75 12.8252 19.5075 13.9627 19.0364C15.1001 18.5652 16.1336 17.8747 17.0041 17.0041C17.8747 16.1336 18.5652 15.1001 19.0364 13.9627C19.5075 12.8252 19.75 11.6061 19.75 10.375C19.75 7.8886 18.7623 5.50403 17.0041 3.74587C15.246 1.98772 12.8614 1 10.375 1C7.8886 1 5.50403 1.98772 3.74587 3.74587C1.98772 5.50403 1 7.8886 1 10.375Z" stroke="#F97316" stroke-width="2" stroke-linecap="round" stroke-linejoin="round"/>
<path d="M10.375 5.16675V10.3751L13.5 13.5001" stroke="#F97316" stroke-width="2" stroke-linecap="round" stroke-linejoin="round"/>
</svg>
