<svg width="20" height="15" viewBox="0 0 20 15" fill="none" xmlns="http://www.w3.org/2000/svg">
<path d="M5 15C3.62121 15 2.44333 14.5078 1.46636 13.5234C0.489394 12.5391 0.000606061 11.3359 0 9.91406C0 8.69531 0.356061 7.60938 1.06818 6.65625C1.7803 5.70313 2.71212 5.09375 3.86364 4.82812C4.24242 3.39062 5 2.22656 6.13636 1.33594C7.27273 0.445313 8.56061 0 10 0C11.7727 0 13.2767 0.636875 14.5118 1.91063C15.747 3.18438 16.3642 4.735 16.3636 6.5625C17.4091 6.6875 18.2767 7.1525 18.9664 7.9575C19.6561 8.7625 20.0006 9.70375 20 10.7812C20 11.9531 19.6024 12.9494 18.8073 13.77C18.0121 14.5906 17.0461 15.0006 15.9091 15H5ZM5 13.125H15.9091C16.5455 13.125 17.0833 12.8984 17.5227 12.4453C17.9621 11.9922 18.1818 11.4375 18.1818 10.7812C18.1818 10.125 17.9621 9.57031 17.5227 9.11719C17.0833 8.66406 16.5455 8.4375 15.9091 8.4375H14.5455V6.5625C14.5455 5.26562 14.1021 4.16 13.2155 3.24563C12.3288 2.33125 11.257 1.87437 10 1.875C8.74303 1.87563 7.67121 2.33281 6.78455 3.24656C5.89788 4.16031 5.45455 5.26562 5.45455 6.5625H5C4.12121 6.5625 3.37121 6.88281 2.75 7.52344C2.12879 8.16406 1.81818 8.9375 1.81818 9.84375C1.81818 10.75 2.12879 11.5234 2.75 12.1641C3.37121 12.8047 4.12121 13.125 5 13.125Z" fill="white"/>
</svg>
