<svg xmlns="http://www.w3.org/2000/svg" xmlns:xlink="http://www.w3.org/1999/xlink" width="200" zoomAndPan="magnify" viewBox="0 0 150 149.999998" height="200" preserveAspectRatio="xMidYMid meet" version="1.0"><path fill="#000000" d="M 21.429688 0 C 9.636719 0 0 9.636719 0 21.429688 L 0 39.285156 C -0.0078125 39.765625 0.078125 40.222656 0.257812 40.667969 C 0.433594 41.113281 0.691406 41.503906 1.027344 41.84375 C 1.363281 42.183594 1.75 42.445312 2.191406 42.632812 C 2.632812 42.816406 3.09375 42.90625 3.570312 42.90625 C 4.050781 42.90625 4.507812 42.816406 4.949219 42.632812 C 5.390625 42.445312 5.777344 42.183594 6.113281 41.84375 C 6.449219 41.503906 6.707031 41.113281 6.886719 40.667969 C 7.0625 40.222656 7.148438 39.765625 7.144531 39.285156 L 7.144531 21.429688 C 7.144531 13.5 13.5 7.144531 21.429688 7.144531 L 39.285156 7.144531 C 39.765625 7.148438 40.222656 7.0625 40.667969 6.886719 C 41.113281 6.707031 41.503906 6.449219 41.84375 6.113281 C 42.183594 5.777344 42.445312 5.390625 42.632812 4.949219 C 42.816406 4.507812 42.90625 4.050781 42.90625 3.570312 C 42.90625 3.09375 42.816406 2.632812 42.632812 2.191406 C 42.445312 1.75 42.183594 1.363281 41.84375 1.027344 C 41.503906 0.691406 41.113281 0.433594 40.667969 0.257812 C 40.222656 0.078125 39.765625 -0.0078125 39.285156 0 Z M 110.714844 0 C 110.234375 -0.0078125 109.777344 0.078125 109.332031 0.257812 C 108.886719 0.433594 108.496094 0.691406 108.15625 1.027344 C 107.816406 1.363281 107.554688 1.75 107.367188 2.191406 C 107.183594 2.632812 107.09375 3.09375 107.09375 3.570312 C 107.09375 4.050781 107.183594 4.507812 107.367188 4.949219 C 107.554688 5.390625 107.816406 5.777344 108.15625 6.113281 C 108.496094 6.449219 108.886719 6.707031 109.332031 6.886719 C 109.777344 7.0625 110.234375 7.148438 110.714844 7.144531 L 128.570312 7.144531 C 136.5 7.144531 142.855469 13.5 142.855469 21.429688 L 142.855469 39.285156 C 142.851562 39.765625 142.9375 40.222656 143.113281 40.667969 C 143.292969 41.113281 143.550781 41.503906 143.886719 41.84375 C 144.222656 42.183594 144.609375 42.445312 145.050781 42.632812 C 145.492188 42.816406 145.949219 42.90625 146.429688 42.90625 C 146.90625 42.90625 147.367188 42.816406 147.808594 42.632812 C 148.246094 42.445312 148.636719 42.183594 148.972656 41.84375 C 149.308594 41.503906 149.566406 41.113281 149.742188 40.667969 C 149.921875 40.222656 150.007812 39.765625 150 39.285156 L 150 21.429688 C 150 9.636719 140.363281 0 128.570312 0 Z M 42.800781 49.949219 C 42.328125 49.957031 41.875 50.054688 41.441406 50.242188 C 41.007812 50.429688 40.625 50.695312 40.292969 51.035156 C 39.964844 51.375 39.714844 51.761719 39.539062 52.203125 C 39.363281 52.640625 39.277344 53.097656 39.285156 53.570312 L 39.285156 64.285156 C 39.277344 64.765625 39.363281 65.222656 39.542969 65.667969 C 39.722656 66.113281 39.976562 66.503906 40.3125 66.84375 C 40.648438 67.183594 41.039062 67.445312 41.480469 67.632812 C 41.917969 67.816406 42.378906 67.90625 42.855469 67.90625 C 43.335938 67.90625 43.792969 67.816406 44.234375 67.632812 C 44.675781 67.445312 45.066406 67.183594 45.402344 66.84375 C 45.734375 66.503906 45.992188 66.113281 46.171875 65.667969 C 46.347656 65.222656 46.433594 64.765625 46.429688 64.285156 L 46.429688 53.570312 C 46.433594 53.089844 46.347656 52.625 46.164062 52.175781 C 45.984375 51.730469 45.722656 51.335938 45.378906 50.996094 C 45.039062 50.652344 44.644531 50.390625 44.195312 50.210938 C 43.75 50.03125 43.285156 49.945312 42.800781 49.949219 Z M 78.515625 49.949219 C 78.042969 49.957031 77.589844 50.054688 77.15625 50.242188 C 76.71875 50.429688 76.339844 50.695312 76.007812 51.035156 C 75.679688 51.375 75.425781 51.761719 75.253906 52.203125 C 75.078125 52.640625 74.992188 53.097656 75 53.570312 L 75 82.144531 C 75 84.160156 73.445312 85.714844 71.429688 85.714844 L 67.855469 85.714844 C 67.378906 85.707031 66.917969 85.792969 66.476562 85.972656 C 66.03125 86.148438 65.640625 86.40625 65.300781 86.742188 C 64.957031 87.078125 64.695312 87.464844 64.511719 87.90625 C 64.328125 88.347656 64.234375 88.808594 64.234375 89.285156 C 64.234375 89.765625 64.328125 90.222656 64.511719 90.664062 C 64.695312 91.105469 64.957031 91.492188 65.300781 91.828125 C 65.640625 92.164062 66.03125 92.421875 66.476562 92.601562 C 66.917969 92.777344 67.378906 92.863281 67.855469 92.855469 L 71.429688 92.855469 C 77.304688 92.855469 82.144531 88.019531 82.144531 82.144531 L 82.144531 53.570312 C 82.148438 53.089844 82.0625 52.625 81.878906 52.175781 C 81.699219 51.730469 81.4375 51.335938 81.09375 50.996094 C 80.753906 50.652344 80.359375 50.390625 79.910156 50.210938 C 79.464844 50.03125 79 49.945312 78.515625 49.949219 Z M 107.085938 49.949219 C 106.613281 49.957031 106.160156 50.054688 105.726562 50.242188 C 105.292969 50.429688 104.910156 50.695312 104.582031 51.035156 C 104.25 51.375 104 51.761719 103.824219 52.203125 C 103.648438 52.640625 103.566406 53.097656 103.570312 53.570312 L 103.570312 64.285156 C 103.566406 64.765625 103.648438 65.222656 103.828125 65.667969 C 104.007812 66.113281 104.265625 66.503906 104.597656 66.84375 C 104.933594 67.183594 105.324219 67.445312 105.765625 67.632812 C 106.207031 67.816406 106.664062 67.910156 107.144531 67.910156 C 107.621094 67.910156 108.082031 67.816406 108.519531 67.632812 C 108.960938 67.445312 109.351562 67.183594 109.6875 66.84375 C 110.023438 66.503906 110.277344 66.113281 110.457031 65.667969 C 110.636719 65.222656 110.722656 64.765625 110.714844 64.285156 L 110.714844 53.570312 C 110.722656 53.089844 110.632812 52.625 110.453125 52.175781 C 110.269531 51.730469 110.007812 51.335938 109.667969 50.996094 C 109.324219 50.652344 108.929688 50.390625 108.480469 50.210938 C 108.035156 50.03125 107.570312 49.945312 107.085938 49.949219 Z M 3.515625 103.523438 C 3.042969 103.53125 2.589844 103.628906 2.15625 103.816406 C 1.71875 104.003906 1.339844 104.265625 1.007812 104.605469 C 0.679688 104.945312 0.425781 105.335938 0.253906 105.773438 C 0.078125 106.214844 -0.0078125 106.667969 0 107.144531 L 0 128.570312 C 0 140.363281 9.636719 150 21.429688 150 L 39.285156 150 C 39.765625 150.007812 40.222656 149.921875 40.667969 149.742188 C 41.113281 149.566406 41.503906 149.308594 41.84375 148.972656 C 42.183594 148.636719 42.445312 148.246094 42.632812 147.808594 C 42.816406 147.367188 42.90625 146.90625 42.90625 146.429688 C 42.90625 145.949219 42.816406 145.492188 42.632812 145.050781 C 42.445312 144.609375 42.183594 144.222656 41.84375 143.886719 C 41.503906 143.550781 41.113281 143.292969 40.667969 143.113281 C 40.222656 142.9375 39.765625 142.851562 39.285156 142.855469 L 21.429688 142.855469 C 13.5 142.855469 7.144531 136.5 7.144531 128.570312 L 7.144531 107.144531 C 7.148438 106.660156 7.0625 106.195312 6.878906 105.75 C 6.699219 105.300781 6.4375 104.90625 6.09375 104.566406 C 5.753906 104.226562 5.359375 103.964844 4.910156 103.78125 C 4.464844 103.601562 4 103.515625 3.515625 103.523438 Z M 96.394531 103.523438 C 95.414062 103.546875 94.582031 103.910156 93.902344 104.617188 C 93.902344 104.617188 92.621094 105.945312 89.472656 107.519531 C 86.328125 109.09375 81.546875 110.714844 75 110.714844 C 68.453125 110.714844 63.671875 109.09375 60.527344 107.519531 C 57.378906 105.945312 56.097656 104.617188 56.097656 104.617188 C 55.394531 103.898438 54.542969 103.535156 53.535156 103.535156 C 53.179688 103.535156 52.832031 103.589844 52.492188 103.691406 C 52.15625 103.796875 51.835938 103.945312 51.542969 104.144531 C 51.246094 104.34375 50.988281 104.582031 50.765625 104.855469 C 50.539062 105.132812 50.363281 105.433594 50.226562 105.765625 C 50.09375 106.09375 50.011719 106.433594 49.980469 106.789062 C 49.949219 107.140625 49.96875 107.492188 50.042969 107.839844 C 50.113281 108.1875 50.238281 108.519531 50.40625 108.828125 C 50.578125 109.140625 50.792969 109.421875 51.046875 109.667969 C 51.046875 109.667969 53.332031 111.910156 57.332031 113.910156 C 61.328125 115.90625 67.261719 117.855469 75 117.855469 C 82.738281 117.855469 88.671875 115.90625 92.667969 113.910156 C 96.667969 111.910156 98.953125 109.667969 98.953125 109.667969 C 99.214844 109.417969 99.429688 109.136719 99.605469 108.820312 C 99.777344 108.507812 99.902344 108.171875 99.976562 107.820312 C 100.046875 107.46875 100.066406 107.113281 100.035156 106.753906 C 100 106.398438 99.914062 106.050781 99.773438 105.71875 C 99.636719 105.386719 99.453125 105.082031 99.222656 104.808594 C 98.992188 104.53125 98.726562 104.292969 98.425781 104.097656 C 98.121094 103.902344 97.796875 103.753906 97.453125 103.65625 C 97.105469 103.558594 96.753906 103.515625 96.394531 103.523438 Z M 146.371094 103.523438 C 145.898438 103.53125 145.445312 103.628906 145.011719 103.816406 C 144.578125 104.003906 144.195312 104.265625 143.867188 104.605469 C 143.535156 104.945312 143.285156 105.335938 143.109375 105.773438 C 142.933594 106.214844 142.851562 106.667969 142.855469 107.144531 L 142.855469 128.570312 C 142.855469 136.5 136.5 142.855469 128.570312 142.855469 L 110.714844 142.855469 C 110.234375 142.851562 109.777344 142.9375 109.332031 143.113281 C 108.886719 143.292969 108.496094 143.550781 108.15625 143.886719 C 107.816406 144.222656 107.554688 144.609375 107.367188 145.050781 C 107.183594 145.492188 107.09375 145.949219 107.09375 146.429688 C 107.09375 146.90625 107.183594 147.367188 107.367188 147.808594 C 107.554688 148.246094 107.816406 148.636719 108.15625 148.972656 C 108.496094 149.308594 108.886719 149.566406 109.332031 149.742188 C 109.777344 149.921875 110.234375 150.007812 110.714844 150 L 128.570312 150 C 140.363281 150 150 140.363281 150 128.570312 L 150 107.144531 C 150.007812 106.660156 149.917969 106.195312 149.738281 105.75 C 149.554688 105.300781 149.292969 104.90625 148.953125 104.566406 C 148.609375 104.226562 148.214844 103.964844 147.769531 103.78125 C 147.320312 103.601562 146.855469 103.515625 146.371094 103.523438 Z M 146.371094 103.523438 " fill-opacity="1" fill-rule="nonzero"/></svg>