<svg width="50" height="50" viewBox="0 0 50 50" fill="none" xmlns="http://www.w3.org/2000/svg">
<path d="M8.33325 16.6667V12.5C8.33325 11.395 8.77224 10.3352 9.55364 9.55376C10.335 8.77236 11.3948 8.33337 12.4999 8.33337H16.6666M8.33325 33.3334V37.5C8.33325 38.6051 8.77224 39.6649 9.55364 40.4463C10.335 41.2277 11.3948 41.6667 12.4999 41.6667H16.6666M33.3333 8.33337H37.4999C38.605 8.33337 39.6648 8.77236 40.4462 9.55376C41.2276 10.3352 41.6666 11.395 41.6666 12.5V16.6667M33.3333 41.6667H37.4999C38.605 41.6667 39.6648 41.2277 40.4462 40.4463C41.2276 39.6649 41.6666 38.6051 41.6666 37.5V33.3334M16.6666 33.3334C16.6666 32.2283 17.1056 31.1685 17.887 30.3871C18.6684 29.6057 19.7282 29.1667 20.8333 29.1667H29.1666C30.2717 29.1667 31.3315 29.6057 32.1129 30.3871C32.8943 31.1685 33.3333 32.2283 33.3333 33.3334M20.8333 18.75C20.8333 19.8551 21.2722 20.9149 22.0536 21.6963C22.835 22.4777 23.8948 22.9167 24.9999 22.9167C26.105 22.9167 27.1648 22.4777 27.9462 21.6963C28.7276 20.9149 29.1666 19.8551 29.1666 18.75C29.1666 17.645 28.7276 16.5852 27.9462 15.8038C27.1648 15.0224 26.105 14.5834 24.9999 14.5834C23.8948 14.5834 22.835 15.0224 22.0536 15.8038C21.2722 16.5852 20.8333 17.645 20.8333 18.75Z" stroke="black" stroke-width="2" stroke-linecap="round" stroke-linejoin="round"/>
</svg>
