<svg xmlns="http://www.w3.org/2000/svg" xmlns:xlink="http://www.w3.org/1999/xlink" width="200" zoomAndPan="magnify" viewBox="0 0 150 149.999998" height="200" preserveAspectRatio="xMidYMid meet" version="1.0"><path fill="#000000" d="M 62.023438 75.9375 C 70.867188 30.699219 59.980469 12.691406 49.289062 5.546875 C 48.4375 4.976562 47.542969 4.484375 46.609375 4.066406 C 45.671875 3.648438 44.710938 3.308594 43.71875 3.050781 C 42.730469 2.792969 41.726562 2.617188 40.707031 2.527344 C 39.6875 2.4375 38.667969 2.433594 37.644531 2.511719 C 36.625 2.589844 35.617188 2.753906 34.625 3 C 33.632812 3.246094 32.664062 3.574219 31.726562 3.984375 C 30.789062 4.390625 29.886719 4.875 29.03125 5.433594 C 28.171875 5.988281 27.363281 6.613281 26.605469 7.308594 C -0.0625 31.542969 29.40625 81.136719 30.671875 83.234375 C 30.949219 83.6875 31.328125 84.015625 31.816406 84.222656 C 32.304688 84.425781 32.804688 84.464844 33.316406 84.339844 L 60.210938 77.835938 C 60.671875 77.722656 61.066406 77.496094 61.394531 77.152344 C 61.722656 76.808594 61.933594 76.402344 62.023438 75.9375 Z M 33.953125 79.179688 C 29.304688 70.796875 8.5625 30.273438 29.863281 10.914062 C 31.128906 9.761719 32.558594 8.878906 34.152344 8.261719 C 35.746094 7.644531 37.394531 7.335938 39.105469 7.335938 C 41.832031 7.332031 44.328125 8.089844 46.597656 9.609375 C 55.945312 15.851562 65.359375 32.011719 57.558594 73.484375 Z M 33.953125 79.179688 " fill-opacity="1" fill-rule="nonzero"/><path fill="#000000" d="M 61.660156 86.757812 L 36.683594 93.972656 C 36.429688 94.046875 36.195312 94.160156 35.976562 94.3125 C 35.757812 94.464844 35.570312 94.644531 35.410156 94.859375 C 35.253906 95.074219 35.132812 95.308594 35.050781 95.5625 C 34.96875 95.816406 34.929688 96.074219 34.933594 96.34375 C 34.949219 97.425781 35.464844 122.9375 52.742188 127.25 C 53.914062 127.542969 55.105469 127.6875 56.3125 127.691406 C 57.441406 127.691406 58.550781 127.566406 59.648438 127.308594 C 60.746094 127.050781 61.800781 126.667969 62.808594 126.164062 C 63.816406 125.660156 64.753906 125.046875 65.621094 124.324219 C 66.484375 123.597656 67.253906 122.785156 67.929688 121.878906 C 72.496094 115.746094 75.585938 104.84375 64.363281 87.757812 C 64.070312 87.3125 63.675781 86.996094 63.175781 86.8125 C 62.675781 86.628906 62.171875 86.609375 61.660156 86.757812 Z M 64.050781 118.96875 C 63.476562 119.734375 62.804688 120.398438 62.03125 120.964844 C 61.261719 121.53125 60.425781 121.976562 59.527344 122.292969 C 58.625 122.609375 57.699219 122.792969 56.742188 122.835938 C 55.789062 122.878906 54.847656 122.78125 53.921875 122.542969 C 42.582031 119.710938 40.335938 103.617188 39.894531 98.125 L 61.273438 91.941406 C 69.820312 105.78125 67.554688 114.253906 64.050781 118.96875 Z M 64.050781 118.96875 " fill-opacity="1" fill-rule="nonzero"/><path fill="#000000" d="M 129.148438 28.085938 C 128.394531 27.394531 127.585938 26.769531 126.726562 26.214844 C 125.867188 25.65625 124.96875 25.171875 124.03125 24.765625 C 123.089844 24.359375 122.125 24.03125 121.132812 23.785156 C 120.136719 23.535156 119.132812 23.375 118.109375 23.292969 C 117.089844 23.214844 116.070312 23.222656 115.050781 23.3125 C 114.03125 23.402344 113.027344 23.574219 112.039062 23.832031 C 111.046875 24.089844 110.085938 24.429688 109.148438 24.847656 C 108.214844 25.265625 107.320312 25.757812 106.46875 26.324219 C 95.777344 33.46875 84.890625 51.476562 93.734375 96.71875 C 93.824219 97.1875 94.035156 97.589844 94.363281 97.933594 C 94.691406 98.277344 95.085938 98.507812 95.546875 98.617188 L 122.4375 105.121094 C 122.953125 105.246094 123.453125 105.203125 123.941406 105 C 124.429688 104.796875 124.808594 104.46875 125.082031 104.015625 C 126.351562 101.914062 155.816406 52.324219 129.148438 28.085938 Z M 121.804688 99.960938 L 98.199219 94.25 C 90.398438 52.78125 99.8125 36.621094 109.160156 30.378906 C 109.789062 29.957031 110.449219 29.59375 111.136719 29.285156 C 111.828125 28.976562 112.539062 28.730469 113.269531 28.539062 C 114.003906 28.347656 114.742188 28.222656 115.496094 28.15625 C 116.25 28.089844 117.003906 28.085938 117.753906 28.144531 C 118.507812 28.203125 119.25 28.324219 119.984375 28.507812 C 120.71875 28.691406 121.429688 28.933594 122.125 29.238281 C 122.816406 29.539062 123.480469 29.894531 124.113281 30.308594 C 124.746094 30.722656 125.34375 31.183594 125.898438 31.695312 C 147.191406 51.054688 126.453125 91.578125 121.804688 99.960938 Z M 121.804688 99.960938 " fill-opacity="1" fill-rule="nonzero"/><path fill="#000000" d="M 119.070312 114.765625 L 94.097656 107.542969 C 93.585938 107.394531 93.082031 107.410156 92.582031 107.597656 C 92.085938 107.78125 91.6875 108.097656 91.398438 108.542969 C 80.171875 125.636719 83.261719 136.527344 87.828125 142.660156 C 88.503906 143.566406 89.273438 144.382812 90.136719 145.109375 C 91.003906 145.832031 91.941406 146.449219 92.949219 146.953125 C 93.957031 147.460938 95.011719 147.84375 96.109375 148.101562 C 97.207031 148.359375 98.320312 148.488281 99.445312 148.484375 C 100.652344 148.484375 101.84375 148.335938 103.011719 148.042969 C 120.292969 143.726562 120.808594 118.214844 120.824219 117.136719 C 120.828125 116.871094 120.789062 116.609375 120.707031 116.355469 C 120.625 116.105469 120.503906 115.871094 120.347656 115.65625 C 120.1875 115.441406 120 115.257812 119.78125 115.105469 C 119.5625 114.953125 119.328125 114.839844 119.070312 114.765625 Z M 101.847656 143.324219 C 100.917969 143.5625 99.980469 143.660156 99.023438 143.617188 C 98.066406 143.574219 97.140625 143.394531 96.238281 143.078125 C 95.335938 142.757812 94.496094 142.316406 93.726562 141.75 C 92.953125 141.183594 92.28125 140.515625 91.707031 139.746094 C 88.195312 135.035156 85.929688 126.5625 94.484375 112.734375 L 115.863281 118.917969 C 115.441406 124.390625 113.214844 140.484375 101.839844 143.324219 Z M 101.847656 143.324219 " fill-opacity="1" fill-rule="nonzero"/></svg>