<svg width="15" height="15" viewBox="0 0 15 15" fill="none" xmlns="http://www.w3.org/2000/svg">
<path d="M4.0625 1.875C3.59375 1.875 3.21625 2.13542 2.93 2.65625C2.64375 3.17708 2.50042 3.75 2.5 4.375C2.5 5.03125 2.59125 5.61208 2.77375 6.1175C2.95625 6.62292 3.12542 7.00042 3.28125 7.25L5 6.90625C5.13542 6.57292 5.27354 6.19271 5.41438 5.76563C5.55521 5.33854 5.62542 4.875 5.625 4.375C5.625 3.75 5.48188 3.17708 5.19563 2.65625C4.90938 2.13542 4.53167 1.875 4.0625 1.875ZM4.92188 10C5.11979 10 5.28646 9.92708 5.42188 9.78125C5.55729 9.63542 5.625 9.43229 5.625 9.17188C5.625 8.99479 5.58333 8.8125 5.5 8.625C5.41667 8.4375 5.33333 8.27083 5.25 8.125L3.75 8.4375C3.75 8.85417 3.84125 9.21875 4.02375 9.53125C4.20625 9.84375 4.50563 10 4.92188 10ZM10.9375 5C10.4688 5 10.0913 5.26042 9.805 5.78125C9.51875 6.30208 9.37542 6.875 9.375 7.5C9.375 8 9.44542 8.46104 9.58625 8.88313C9.72709 9.30521 9.865 9.68792 10 10.0312L11.7188 10.375C11.875 10.125 12.0444 9.75 12.2269 9.25C12.4094 8.75 12.5004 8.16667 12.5 7.5C12.5 6.875 12.3569 6.30208 12.0706 5.78125C11.7844 5.26042 11.4067 5 10.9375 5ZM10.0781 13.125C10.4948 13.125 10.7944 12.9688 10.9769 12.6562C11.1594 12.3438 11.2504 11.9792 11.25 11.5625L9.75 11.25C9.66667 11.3958 9.58333 11.5625 9.5 11.75C9.41667 11.9375 9.375 12.1198 9.375 12.2969C9.375 12.5052 9.44021 12.6954 9.57063 12.8675C9.70104 13.0396 9.87021 13.1254 10.0781 13.125ZM4.92188 11.25C4.11979 11.25 3.51042 10.9531 3.09375 10.3594C2.67708 9.76563 2.47917 9.09896 2.5 8.35938L2.21875 7.9375C2.10417 7.76042 1.91396 7.35938 1.64813 6.73438C1.38229 6.10938 1.24958 5.32292 1.25 4.375C1.25 3.30208 1.51563 2.40875 2.04688 1.695C2.57813 0.98125 3.25 0.624584 4.0625 0.625C4.94792 0.625 5.63813 1.01833 6.13313 1.805C6.62813 2.59167 6.87542 3.44833 6.875 4.375C6.875 4.97917 6.79167 5.53646 6.625 6.04688C6.45833 6.55729 6.3125 6.96875 6.1875 7.28125L6.3125 7.48438C6.39583 7.63021 6.51042 7.86208 6.65625 8.18C6.80208 8.49792 6.875 8.82854 6.875 9.17188C6.875 9.76563 6.69 10.2604 6.32 10.6562C5.95 11.0521 5.48354 11.25 4.92188 11.25ZM10.0788 14.375C9.51625 14.375 9.05 14.1771 8.68 13.7812C8.31 13.3854 8.125 12.8906 8.125 12.2969C8.125 11.9531 8.19792 11.6223 8.34375 11.3044C8.48958 10.9865 8.60417 10.7548 8.6875 10.6094L8.8125 10.4062C8.6875 10.0938 8.54167 9.68229 8.375 9.17188C8.20833 8.66146 8.125 8.10417 8.125 7.5C8.125 6.57292 8.3725 5.71625 8.8675 4.93C9.3625 4.14375 10.0525 3.75042 10.9375 3.75C11.75 3.75 12.4219 4.10688 12.9531 4.82063C13.4844 5.53438 13.75 6.4275 13.75 7.5C13.75 8.44792 13.6171 9.23188 13.3513 9.85188C13.0854 10.4719 12.8954 10.8702 12.7813 11.0469L12.5 11.4844C12.5104 12.224 12.31 12.8906 11.8988 13.4844C11.4875 14.0781 10.8813 14.375 10.0788 14.375Z" fill="black"/>
</svg>
