<svg width="22" height="22" viewBox="0 0 22 22" fill="none" xmlns="http://www.w3.org/2000/svg">
<path opacity="0.987" fill-rule="evenodd" clip-rule="evenodd" d="M9.31113 0.0949219C10.4439 -0.0316406 11.1143 -0.0316406 12.3314 0.0949219C14.486 0.41382 16.4833 1.40974 18.0346 2.93867C16.9863 3.92951 15.9519 4.93481 14.9314 5.9543C12.9773 4.29805 10.796 3.91576 8.3877 4.80742C6.62103 5.61992 5.39082 6.93659 4.69707 8.75742C3.56338 7.91341 2.44446 7.04973 1.34082 6.1668C1.26412 6.12642 1.17652 6.11164 1.09082 6.12461C2.84395 2.7444 5.58353 0.733984 9.30957 0.0933593" fill="#F44336"/>
<path opacity="0.997" fill-rule="evenodd" clip-rule="evenodd" d="M1.08789 6.12461C1.17644 6.11107 1.26029 6.12513 1.33946 6.1668C2.4431 7.04974 3.56202 7.91341 4.69571 8.75742C4.51731 9.46689 4.40485 10.1913 4.35977 10.9215C4.39831 11.6277 4.51029 12.321 4.69571 13.0012L1.17227 15.8059C-0.362106 12.5996 -0.390231 9.37253 1.08789 6.12461Z" fill="#FFC107"/>
<path opacity="0.999" fill-rule="evenodd" clip-rule="evenodd" d="M17.868 19.2028C16.7709 18.2353 15.6223 17.3277 14.4273 16.484C15.6253 15.6382 16.3523 14.4778 16.6086 13.0028H10.7383V8.92622C14.1237 8.8981 17.5076 8.92674 20.8898 9.01216C21.5315 12.4965 20.7904 15.6382 18.6664 18.4372C18.4139 18.7056 18.1463 18.9612 17.868 19.2028Z" fill="#448AFF"/>
<path opacity="0.993" fill-rule="evenodd" clip-rule="evenodd" d="M4.69531 13.0027C5.97656 16.1871 8.32552 17.6735 11.7422 17.4621C12.7013 17.351 13.6209 17.016 14.4266 16.4839C15.6224 17.3298 16.7693 18.236 17.8672 19.2027C16.1276 20.7659 13.9095 21.6934 11.575 21.8339C11.0446 21.8763 10.5117 21.8763 9.98125 21.8339C6.00417 21.3652 3.06771 19.3558 1.17188 15.8058L4.69531 13.0027Z" fill="#43A047"/>
</svg>
