<svg width="50" height="50" viewBox="0 0 50 50" fill="none" xmlns="http://www.w3.org/2000/svg">
<path d="M6.38342 15.6458C8.11753 12.1948 10.7768 9.29383 14.0642 7.26676C17.3517 5.23969 21.1379 4.16636 25.0001 4.16663C30.6147 4.16663 35.3313 6.23121 38.9376 9.59371L32.9647 15.5687C30.8043 13.5041 28.0584 12.452 25.0001 12.452C19.573 12.452 14.9793 16.1187 13.3438 21.0416C12.9272 22.2916 12.6897 23.625 12.6897 25C12.6897 26.375 12.9272 27.7083 13.3438 28.9583C14.9813 33.8833 19.573 37.5479 25.0001 37.5479C27.8022 37.5479 30.1876 36.8083 32.0543 35.5583C33.1364 34.8458 34.0629 33.9213 34.7776 32.8406C35.4923 31.7599 35.9805 30.5455 36.2126 29.2708H25.0001V21.2125H44.6209C44.8667 22.575 45.0001 23.9958 45.0001 25.4729C45.0001 31.8187 42.7293 37.1604 38.7876 40.7854C35.3418 43.9687 30.6251 45.8333 25.0001 45.8333C22.2639 45.8344 19.5543 45.2963 17.0262 44.2497C14.4981 43.2031 12.201 41.6686 10.2662 39.7338C8.33148 37.799 6.79695 35.5019 5.75036 32.9738C4.70378 30.4457 4.16565 27.7361 4.16675 25C4.16675 21.6375 4.97092 18.4583 6.38342 15.6458Z" fill="black"/>
</svg>
