<svg xmlns="http://www.w3.org/2000/svg" xmlns:xlink="http://www.w3.org/1999/xlink" width="500" zoomAndPan="magnify" viewBox="0 0 375 187.499995" height="250" preserveAspectRatio="xMidYMid meet" version="1.0"><defs><g/><clipPath id="9ea846dd47"><path d="M 4 12 L 149.351562 12 L 149.351562 178.082031 L 4 178.082031 Z M 4 12 " clip-rule="nonzero"/></clipPath><clipPath id="24dd26baa2"><rect x="0" width="203" y="0" height="107"/></clipPath></defs><g clip-path="url(#9ea846dd47)"><path fill="#cc2b31" d="M 138.339844 22.261719 C 131.789062 16.007812 123.007812 12.523438 113.960938 12.554688 C 104.617188 12.589844 95.835938 16.25 89.226562 22.871094 L 76.621094 35.492188 L 64.332031 23.183594 C 50.644531 9.476562 28.355469 9.046875 14.53125 22.625 C 0.574219 36.332031 0.492188 58.859375 14.285156 72.671875 L 81.027344 139.511719 C 88.644531 147.140625 89 159.5625 81.53125 167.332031 C 73.890625 175.285156 61.203125 175.382812 53.441406 167.609375 L 36.910156 151.054688 C 36.214844 150.355469 36.140625 149.25 36.742188 148.460938 C 39.183594 145.246094 40.535156 141.160156 40.230469 136.757812 C 39.636719 128.0625 32.539062 121.074219 23.847656 120.621094 C 13.785156 120.09375 5.441406 128.210938 5.574219 138.207031 C 5.699219 147.464844 13.234375 155.105469 22.472656 155.335938 C 25.457031 155.414062 28.273438 154.730469 30.75 153.472656 C 31.503906 153.089844 32.417969 153.25 33.011719 153.847656 L 50.089844 170.953125 C 54.847656 175.71875 61.09375 178.097656 67.34375 178.097656 C 73.589844 178.097656 79.839844 175.714844 84.59375 170.953125 C 94.109375 161.429688 94.109375 145.925781 84.59375 136.398438 L 17.628906 69.328125 C 5.761719 57.441406 5.761719 38.105469 17.628906 26.21875 C 29.496094 14.332031 48.808594 14.332031 60.675781 26.21875 L 74.890625 40.457031 C 75.367188 40.933594 75.996094 41.15625 76.621094 41.140625 C 77.25 41.15625 77.878906 40.933594 78.355469 40.457031 L 92.289062 26.503906 C 98.066406 20.714844 105.867188 17.308594 114.035156 17.292969 C 122.1875 17.277344 129.859375 20.449219 135.621094 26.21875 C 141.378906 31.988281 144.546875 39.660156 144.535156 47.820312 C 144.523438 56.003906 141.117188 63.824219 135.335938 69.613281 L 130.835938 74.125 C 130.464844 74.496094 129.960938 74.703125 129.4375 74.703125 L 116.011719 74.703125 C 115.269531 74.703125 114.582031 74.28125 114.25 73.613281 L 107.769531 60.628906 C 107.042969 59.171875 104.972656 59.171875 104.246094 60.628906 L 93.101562 82.929688 C 92.378906 84.382812 90.308594 84.382812 89.582031 82.929688 L 85.777344 75.304688 C 85.050781 73.847656 82.980469 73.847656 82.253906 75.304688 L 78.449219 82.925781 C 77.726562 84.378906 75.652344 84.378906 74.929688 82.925781 L 63.792969 60.621094 C 63.070312 59.164062 60.996094 59.164062 60.273438 60.621094 L 53.789062 73.605469 C 53.453125 74.273438 52.773438 74.695312 52.027344 74.695312 L 40.148438 74.695312 C 38.851562 74.695312 37.726562 75.695312 37.6875 76.992188 C 37.648438 78.332031 38.71875 79.429688 40.050781 79.429688 L 54.949219 79.429688 C 55.695312 79.429688 56.378906 79.007812 56.710938 78.339844 L 60.273438 71.203125 C 60.996094 69.75 63.070312 69.75 63.792969 71.203125 L 74.929688 93.507812 C 75.652344 94.964844 77.726562 94.964844 78.449219 93.507812 L 82.253906 85.886719 C 82.980469 84.429688 85.050781 84.429688 85.777344 85.886719 L 89.582031 93.511719 C 90.308594 94.96875 92.378906 94.96875 93.101562 93.511719 L 104.238281 71.207031 C 104.964844 69.757812 107.035156 69.753906 107.761719 71.207031 L 111.324219 78.34375 C 111.660156 79.011719 112.339844 79.433594 113.085938 79.433594 L 131.226562 79.433594 C 131.226562 79.433594 131.226562 79.433594 131.230469 79.433594 L 131.234375 79.433594 C 131.378906 79.433594 131.519531 79.417969 131.65625 79.394531 C 131.664062 79.394531 131.675781 79.390625 131.683594 79.390625 C 131.824219 79.363281 131.960938 79.324219 132.089844 79.269531 C 132.101562 79.265625 132.113281 79.261719 132.125 79.257812 C 132.257812 79.203125 132.382812 79.136719 132.5 79.0625 C 132.511719 79.054688 132.523438 79.050781 132.535156 79.042969 C 132.664062 78.957031 132.78125 78.859375 132.890625 78.753906 C 132.894531 78.75 132.894531 78.75 132.898438 78.746094 L 138.617188 73.019531 C 145.386719 66.242188 149.335938 57.0625 149.261719 47.476562 C 149.183594 37.890625 145.300781 28.910156 138.339844 22.261719 Z M 10.300781 137.96875 C 10.300781 131 15.96875 125.328125 22.921875 125.328125 C 29.878906 125.328125 35.542969 131.003906 35.542969 137.96875 C 35.542969 144.9375 29.878906 150.609375 22.921875 150.609375 C 15.96875 150.609375 10.300781 144.9375 10.300781 137.96875 Z M 10.300781 137.96875 " fill-opacity="1" fill-rule="nonzero"/></g><g transform="matrix(1, 0, 0, 1, 159, 40)"><g clip-path="url(#24dd26baa2)"><g fill="#000000" fill-opacity="1"><g transform="translate(0.212902, 46.758389)"><g><path d="M 33.890625 -33.5625 L 33.890625 0 L 29.09375 0 L 29.09375 -14.953125 L 9.828125 -14.953125 L 9.828125 0 L 5.03125 0 L 5.03125 -33.5625 L 9.828125 -33.5625 L 9.828125 -19.125 L 29.09375 -19.125 L 29.09375 -33.5625 Z M 33.890625 -33.5625 "/></g></g></g><g fill="#000000" fill-opacity="1"><g transform="translate(39.134718, 46.758389)"><g><path d="M 29.390625 -4.171875 L 29.390625 0 L 5.03125 0 L 5.03125 -33.5625 L 28.71875 -33.5625 L 28.71875 -29.390625 L 9.828125 -29.390625 L 9.828125 -19.078125 L 26.65625 -19.078125 L 26.65625 -15 L 9.828125 -15 L 9.828125 -4.171875 Z M 29.390625 -4.171875 "/></g></g></g><g fill="#000000" fill-opacity="1"><g transform="translate(71.249997, 46.758389)"><g><path d="M 26.40625 -8.390625 L 8.578125 -8.390625 L 4.890625 0 L -0.046875 0 L 15.140625 -33.5625 L 19.890625 -33.5625 L 35.140625 0 L 30.109375 0 Z M 24.734375 -12.21875 L 17.5 -28.671875 L 10.265625 -12.21875 Z M 24.734375 -12.21875 "/></g></g></g><g fill="#000000" fill-opacity="1"><g transform="translate(106.337138, 46.758389)"><g><path d="M 5.03125 -33.5625 L 9.828125 -33.5625 L 9.828125 -4.171875 L 28 -4.171875 L 28 0 L 5.03125 0 Z M 5.03125 -33.5625 "/></g></g></g><g fill="#000000" fill-opacity="1"><g transform="translate(134.809492, 46.758389)"><g><path d="M 11.703125 -29.390625 L 0.1875 -29.390625 L 0.1875 -33.5625 L 27.953125 -33.5625 L 27.953125 -29.390625 L 16.4375 -29.390625 L 16.4375 0 L 11.703125 0 Z M 11.703125 -29.390625 "/></g></g></g><g fill="#000000" fill-opacity="1"><g transform="translate(162.946323, 46.758389)"><g><path d="M 33.890625 -33.5625 L 33.890625 0 L 29.09375 0 L 29.09375 -14.953125 L 9.828125 -14.953125 L 9.828125 0 L 5.03125 0 L 5.03125 -33.5625 L 9.828125 -33.5625 L 9.828125 -19.125 L 29.09375 -19.125 L 29.09375 -33.5625 Z M 33.890625 -33.5625 "/></g></g></g><g fill="#000000" fill-opacity="1"><g transform="translate(0.212902, 93.954292)"><g><path d="M 20.03125 0.390625 C 16.675781 0.390625 13.648438 -0.351562 10.953125 -1.84375 C 8.253906 -3.332031 6.132812 -5.378906 4.59375 -7.984375 C 3.0625 -10.585938 2.296875 -13.519531 2.296875 -16.78125 C 2.296875 -20.039062 3.0625 -22.972656 4.59375 -25.578125 C 6.132812 -28.179688 8.257812 -30.222656 10.96875 -31.703125 C 13.6875 -33.191406 16.722656 -33.9375 20.078125 -33.9375 C 22.703125 -33.9375 25.097656 -33.492188 27.265625 -32.609375 C 29.441406 -31.734375 31.300781 -30.4375 32.84375 -28.71875 L 29.71875 -25.6875 C 27.195312 -28.34375 24.050781 -29.671875 20.28125 -29.671875 C 17.78125 -29.671875 15.523438 -29.109375 13.515625 -27.984375 C 11.503906 -26.867188 9.929688 -25.328125 8.796875 -23.359375 C 7.660156 -21.398438 7.09375 -19.207031 7.09375 -16.78125 C 7.09375 -14.351562 7.660156 -12.15625 8.796875 -10.1875 C 9.929688 -8.21875 11.503906 -6.675781 13.515625 -5.5625 C 15.523438 -4.445312 17.78125 -3.890625 20.28125 -3.890625 C 24.019531 -3.890625 27.164062 -5.226562 29.71875 -7.90625 L 32.84375 -4.890625 C 31.300781 -3.160156 29.4375 -1.847656 27.25 -0.953125 C 25.0625 -0.0546875 22.65625 0.390625 20.03125 0.390625 Z M 20.03125 0.390625 "/></g></g></g><g fill="#000000" fill-opacity="1"><g transform="translate(34.868655, 93.954292)"><g><path d="M 26.40625 -8.390625 L 8.578125 -8.390625 L 4.890625 0 L -0.046875 0 L 15.140625 -33.5625 L 19.890625 -33.5625 L 35.140625 0 L 30.109375 0 Z M 24.734375 -12.21875 L 17.5 -28.671875 L 10.265625 -12.21875 Z M 24.734375 -12.21875 "/></g></g></g><g fill="#000000" fill-opacity="1"><g transform="translate(69.955796, 93.954292)"><g><path d="M 27.46875 0 L 20.234375 -10.3125 C 19.335938 -10.238281 18.632812 -10.203125 18.125 -10.203125 L 9.828125 -10.203125 L 9.828125 0 L 5.03125 0 L 5.03125 -33.5625 L 18.125 -33.5625 C 22.46875 -33.5625 25.882812 -32.519531 28.375 -30.4375 C 30.875 -28.363281 32.125 -25.503906 32.125 -21.859375 C 32.125 -19.265625 31.484375 -17.054688 30.203125 -15.234375 C 28.921875 -13.421875 27.097656 -12.097656 24.734375 -11.265625 L 32.6875 0 Z M 17.96875 -14.28125 C 21.007812 -14.28125 23.328125 -14.9375 24.921875 -16.25 C 26.523438 -17.5625 27.328125 -19.429688 27.328125 -21.859375 C 27.328125 -24.285156 26.523438 -26.144531 24.921875 -27.4375 C 23.328125 -28.738281 21.007812 -29.390625 17.96875 -29.390625 L 9.828125 -29.390625 L 9.828125 -14.28125 Z M 17.96875 -14.28125 "/></g></g></g><g fill="#000000" fill-opacity="1"><g transform="translate(104.803281, 93.954292)"><g><path d="M 29.390625 -4.171875 L 29.390625 0 L 5.03125 0 L 5.03125 -33.5625 L 28.71875 -33.5625 L 28.71875 -29.390625 L 9.828125 -29.390625 L 9.828125 -19.078125 L 26.65625 -19.078125 L 26.65625 -15 L 9.828125 -15 L 9.828125 -4.171875 Z M 29.390625 -4.171875 "/></g></g></g></g></g></svg>