<svg xmlns="http://www.w3.org/2000/svg" xmlns:xlink="http://www.w3.org/1999/xlink" width="200" zoomAndPan="magnify" viewBox="0 0 150 149.999998" height="200" preserveAspectRatio="xMidYMid meet" version="1.0"><defs><clipPath id="9f62f8df5c"><path d="M 0 0 L 149.835938 0 L 149.835938 149.835938 L 0 149.835938 Z M 0 0 " clip-rule="nonzero"/></clipPath><clipPath id="bf51aa32ad"><path d="M 15.949219 22.183594 L 134.273438 22.183594 L 134.273438 141.101562 L 15.949219 141.101562 Z M 15.949219 22.183594 " clip-rule="nonzero"/></clipPath><clipPath id="d15cda8918"><rect x="0" width="150" y="0" height="150"/></clipPath></defs><g transform="matrix(1, 0, 0, 1, 0, -0.000000000000007527)"><g clip-path="url(#d15cda8918)"><g clip-path="url(#9f62f8df5c)"><path fill="#2d8c83" d="M 74.996094 0 C 33.5625 0 0 33.5625 0 74.996094 C 0 116.433594 33.5625 149.992188 74.996094 149.992188 C 116.433594 149.992188 149.992188 116.433594 149.992188 74.996094 C 149.992188 33.5625 116.433594 0 74.996094 0 Z M 74.996094 0 " fill-opacity="1" fill-rule="nonzero"/></g><g clip-path="url(#bf51aa32ad)"><path fill="#ffffff" d="M 72.703125 95.136719 L 79.945312 130.976562 L 79.140625 131.855469 C 78.296875 132.78125 77.097656 133.308594 75.835938 133.308594 C 74.578125 133.304688 73.382812 132.777344 72.527344 131.847656 L 39.066406 95.136719 L 43.03125 95.136719 C 46.136719 95.136719 48.824219 92.917969 49.421875 89.871094 L 53.0625 71.222656 L 57.1875 90.015625 C 57.835938 92.980469 60.511719 95.136719 63.546875 95.136719 Z M 23 76.320312 C 24.199219 78.292969 25.597656 80.222656 27.203125 82.105469 L 37.664062 82.105469 L 46.292969 37.886719 C 46.882812 34.871094 49.542969 32.65625 52.613281 32.621094 C 55.789062 32.644531 58.398438 34.753906 59.054688 37.746094 L 68.789062 82.105469 L 78.035156 82.105469 C 81.121094 82.105469 83.800781 84.304688 84.421875 87.328125 L 86.949219 99.851562 L 88.476562 88.363281 C 88.90625 85.140625 91.683594 82.707031 94.933594 82.707031 L 124.097656 82.707031 L 124.367188 82.410156 C 124.414062 82.355469 124.46875 82.300781 124.515625 82.242188 C 126.054688 80.378906 127.394531 78.507812 128.554688 76.617188 L 131.59375 70.578125 C 133.222656 66.472656 134.023438 62.257812 134.023438 57.867188 C 134.023438 39.652344 120.300781 24.589844 102.65625 22.453125 L 100.304688 22.242188 C 99.652344 22.203125 99 22.183594 98.34375 22.183594 C 90.03125 22.183594 82.191406 24.992188 75.855469 30.167969 C 69.519531 24.992188 61.679688 22.183594 53.367188 22.183594 C 52.75 22.183594 52.144531 22.203125 51.535156 22.230469 L 49.179688 22.441406 C 31.472656 24.519531 17.683594 39.609375 17.683594 57.867188 C 17.683594 62.152344 18.464844 66.3125 20.023438 70.320312 Z M 98.675781 110.503906 L 112.175781 95.738281 L 100.636719 95.738281 Z M 131.230469 87.285156 L 95.078125 87.285156 C 94.148438 87.285156 93.359375 87.976562 93.234375 88.902344 L 88.039062 127.964844 L 80.003906 88.171875 C 79.824219 87.304688 79.0625 86.679688 78.179688 86.679688 L 65.191406 86.679688 L 54.648438 38.65625 C 54.460938 37.796875 53.722656 37.199219 52.808594 37.195312 C 51.925781 37.203125 51.171875 37.832031 51.003906 38.699219 L 41.640625 86.683594 L 17.828125 86.683594 C 16.796875 86.683594 15.964844 87.515625 15.964844 88.542969 C 15.964844 89.570312 16.796875 90.40625 17.828125 90.40625 L 43.175781 90.40625 C 44.066406 90.40625 44.832031 89.773438 45.003906 88.898438 L 52.9375 48.222656 L 61.878906 88.941406 C 62.066406 89.796875 62.820312 90.40625 63.695312 90.40625 L 76.65625 90.40625 L 86.59375 139.605469 C 86.773438 140.476562 87.539062 141.097656 88.417969 141.097656 C 88.441406 141.097656 88.464844 141.097656 88.484375 141.097656 C 89.394531 141.066406 90.144531 140.386719 90.265625 139.484375 L 96.710938 91.007812 L 131.230469 91.007812 C 132.261719 91.007812 133.09375 90.175781 133.09375 89.148438 C 133.09375 88.121094 132.257812 87.285156 131.230469 87.285156 Z M 131.230469 87.285156 " fill-opacity="1" fill-rule="evenodd"/></g></g></g></svg>