<svg width="30" height="30" viewBox="0 0 30 30" fill="none" xmlns="http://www.w3.org/2000/svg">
<path d="M29.3442 5.79725C28.3438 2.85365 25.986 0.410296 23.0078 0.0730984C21.3194 -0.0928471 19.6211 0.0224463 18.0733 0.825159C16.8567 1.45614 15.8817 2.51356 15.006 3.60523C13.9273 2.2767 12.7365 1.09 11.1629 0.472525C10.2155 0.10156 9.18745 -0.00601515 8.18376 0.000256043C7.31515 0.00749204 6.4381 0.0972184 5.60748 0.388105C4.08601 0.920675 2.81358 2.02682 1.86289 3.3896C1.58511 3.79155 1.34112 4.21712 1.13358 4.66168C0.923459 5.10597 0.744296 5.56811 0.591399 6.037C-0.753258 10.6516 0.0581322 16.3247 4.44714 18.9233C4.88989 19.2359 5.34952 19.536 5.81619 19.8278C7.21338 20.7068 8.67247 21.5341 9.94771 22.5573C10.3093 22.907 10.6297 23.278 10.8904 23.6803C11.4115 24.4849 11.6774 25.4131 11.5489 26.5231C11.677 27.6273 10.7178 28.417 10.7178 29.6013C10.9106 31.1787 17.3403 27.5916 17.8867 27.223C22.4201 24.4709 27.0244 20.9181 28.8236 15.4766C29.1182 14.7765 29.3635 14.0556 29.5576 13.3193C30.201 10.8793 30.1537 8.18079 29.3428 5.79725" fill="#DF394C"/>
</svg>
