<svg xmlns="http://www.w3.org/2000/svg" xmlns:xlink="http://www.w3.org/1999/xlink" width="300" zoomAndPan="magnify" viewBox="0 0 224.87999 149.999998" height="200" preserveAspectRatio="xMidYMid meet" version="1.0"><defs><clipPath id="1c8911c6bd"><path d="M 0 17.160156 L 224.761719 17.160156 L 224.761719 132.597656 L 0 132.597656 Z M 0 17.160156 " clip-rule="nonzero"/></clipPath></defs><g clip-path="url(#1c8911c6bd)"><path fill="#ed1c24" d="M 210.578125 72.238281 L 210.132812 73.53125 L 204.625 89.554688 L 193.683594 28.605469 L 191.632812 17.160156 L 190.410156 28.714844 L 182.023438 108.039062 L 174.761719 47.152344 L 173.9375 40.246094 L 172.496094 47.046875 L 166.90625 73.542969 L 134.691406 73.640625 L 134.019531 73.652344 L 133.789062 74.261719 L 129.734375 85.027344 L 128.835938 79.855469 L 128.703125 79.125 L 127.960938 79.125 L 123.617188 79.136719 L 117.304688 59.320312 L 116.332031 56.242188 L 115.746094 59.414062 L 113.058594 73.84375 L 108.34375 73.855469 L 107.753906 73.867188 L 107.621094 74.429688 L 102.824219 93.933594 L 96.019531 62.074219 L 95.480469 59.59375 L 94.917969 62.0625 L 92.121094 74.082031 L 86.386719 74.09375 L 86.003906 74.09375 L 85.90625 74.464844 L 82.605469 85.839844 L 75.335938 58.003906 L 74.953125 56.53125 L 74.605469 58.015625 L 72.074219 69.160156 L 67.65625 69.171875 L 67.40625 69.171875 L 67.34375 69.414062 L 61.238281 94.664062 L 57.292969 74.574219 L 57.253906 74.429688 L 57.109375 74.429688 L 0.0351562 74.609375 L 56.96875 74.777344 L 60.972656 95.828125 L 61.179688 96.90625 L 61.441406 95.839844 L 67.910156 69.820312 L 72.335938 69.832031 L 72.601562 69.832031 L 72.671875 69.570312 L 74.988281 59.667969 L 82.128906 87.722656 L 82.546875 89.363281 L 83.027344 87.734375 L 86.769531 75.113281 L 92.542969 75.136719 L 92.949219 75.136719 L 93.046875 74.730469 L 95.421875 64.792969 L 102.117188 97.097656 L 102.714844 99.96875 L 103.433594 97.121094 L 108.917969 75.351562 L 113.695312 75.363281 L 114.316406 75.363281 L 114.4375 74.742188 L 116.730469 62.875 L 122.140625 80.273438 L 122.332031 80.882812 L 122.980469 80.882812 L 127.203125 80.894531 L 128.511719 88.632812 L 129.074219 91.9375 L 130.273438 88.8125 L 135.351562 75.566406 L 167.769531 75.664062 L 168.621094 75.664062 L 168.800781 74.824219 L 173.265625 54.339844 L 180.738281 120.480469 L 182.117188 132.597656 L 183.472656 120.46875 L 192.414062 40.617188 L 202.226562 97.277344 L 203.449219 104.351562 L 205.828125 97.5625 L 213.335938 76.105469 L 224.84375 76.140625 L 224.84375 72.191406 L 211.96875 72.226562 Z M 210.578125 72.238281 " fill-opacity="1" fill-rule="nonzero"/></g></svg>