<svg xmlns="http://www.w3.org/2000/svg" width="30" height="30" viewBox="0 0 30 30" fill="none">
  <path d="M15 26.25C14.625 26.25 14.2658 26.1825 13.9225 26.0475C13.5792 25.9125 13.2717 25.7092 13 25.4375L4.625 17.0312C3.89583 16.3021 3.35958 15.4688 3.01625 14.5312C2.67292 13.5938 2.50083 12.6146 2.5 11.5937C2.5 9.44792 3.19792 7.60417 4.59375 6.0625C5.98958 4.52083 7.72917 3.75 9.8125 3.75C10.8125 3.75 11.7554 3.94792 12.6412 4.34375C13.5271 4.73958 14.3133 5.29167 15 6C15.6667 5.29167 16.4429 4.73958 17.3287 4.34375C18.2146 3.94792 19.1571 3.75 20.1562 3.75C22.2396 3.75 23.9846 4.52083 25.3913 6.0625C26.7979 7.60417 27.5008 9.4375 27.5 11.5625C27.5 12.5833 27.3229 13.5625 26.9688 14.5C26.6146 15.4375 26.0833 16.2708 25.375 17L16.9688 25.4375C16.6979 25.7083 16.3958 25.9117 16.0625 26.0475C15.7292 26.1833 15.375 26.2508 15 26.25ZM16.25 10C16.4583 10 16.6562 10.0521 16.8438 10.1562C17.0313 10.2604 17.1771 10.3958 17.2812 10.5625L19.4062 13.75H24.5938C24.7396 13.3958 24.8492 13.0367 24.9225 12.6725C24.9958 12.3083 25.0321 11.9383 25.0312 11.5625C24.9896 10.125 24.5104 8.89042 23.5938 7.85875C22.6771 6.82708 21.5312 6.31167 20.1562 6.3125C19.5104 6.3125 18.8908 6.4375 18.2975 6.6875C17.7042 6.9375 17.1883 7.30208 16.75 7.78125L15.9062 8.6875C15.8021 8.8125 15.6667 8.91167 15.5 8.985C15.3333 9.05833 15.1667 9.09458 15 9.09375C14.8333 9.09292 14.6667 9.05667 14.5 8.985C14.3333 8.91333 14.1875 8.81417 14.0625 8.6875L13.2188 7.78125C12.7812 7.30208 12.2708 6.92708 11.6875 6.65625C11.1042 6.38542 10.4792 6.25 9.8125 6.25C8.4375 6.25 7.29167 6.77625 6.375 7.82875C5.45833 8.88125 5 10.1258 5 11.5625C5 11.9375 5.03125 12.3075 5.09375 12.6725C5.15625 13.0375 5.26042 13.3967 5.40625 13.75H11.25C11.4583 13.75 11.6562 13.8021 11.8438 13.9062C12.0313 14.0104 12.1771 14.1458 12.2812 14.3125L13.375 15.9375L15.0625 10.875C15.1458 10.625 15.2967 10.4167 15.515 10.25C15.7333 10.0833 15.9783 10 16.25 10ZM16.625 14.0625L14.9375 19.125C14.8542 19.375 14.6979 19.5833 14.4688 19.75C14.2396 19.9167 13.9896 20 13.7188 20C13.5104 20 13.3125 19.9479 13.125 19.8438C12.9375 19.7396 12.7917 19.6042 12.6875 19.4375L10.5625 16.25H7.375L14.7812 23.6562C14.8229 23.6979 14.8596 23.7242 14.8913 23.735C14.9229 23.7458 14.9592 23.7508 15 23.75C15.0408 23.7492 15.0775 23.7442 15.11 23.735C15.1425 23.7258 15.1788 23.6996 15.2188 23.6562L22.5938 16.25H18.75C18.5417 16.25 18.3438 16.1979 18.1562 16.0938C17.9687 15.9896 17.8125 15.8542 17.6875 15.6875L16.625 14.0625Z" fill="#238B85"/>
</svg>