<svg xmlns="http://www.w3.org/2000/svg" xmlns:xlink="http://www.w3.org/1999/xlink" width="200" zoomAndPan="magnify" viewBox="0 0 150 149.999998" height="200" preserveAspectRatio="xMidYMid meet" version="1.0"><defs><clipPath id="78d726dc7f"><path d="M 0 11.296875 L 150 11.296875 L 150 138.703125 L 0 138.703125 Z M 0 11.296875 " clip-rule="nonzero"/></clipPath></defs><g clip-path="url(#78d726dc7f)"><path fill="#238b85" d="M 101.960938 122.175781 C 101.222656 122.175781 100.566406 121.675781 100.382812 120.949219 L 86.59375 67.195312 L 83.621094 72.675781 C 83.3125 73.242188 82.703125 73.578125 82.058594 73.523438 C 81.414062 73.476562 80.863281 73.050781 80.648438 72.445312 L 76.027344 59.402344 L 66.714844 69.113281 C 66.40625 69.433594 65.980469 69.613281 65.535156 69.613281 L -4.640625 69.613281 C -5.539062 69.613281 -6.269531 68.882812 -6.269531 67.984375 C -6.269531 67.082031 -5.539062 66.351562 -4.640625 66.351562 L 64.839844 66.351562 L 75.503906 55.234375 C 75.898438 54.824219 76.472656 54.648438 77.023438 54.769531 C 77.578125 54.886719 78.03125 55.285156 78.21875 55.816406 L 82.5 67.894531 L 85.703125 61.984375 C 86.023438 61.390625 86.675781 61.058594 87.339844 61.140625 C 88.003906 61.222656 88.550781 61.703125 88.71875 62.355469 L 100.992188 110.195312 L 107.246094 12.824219 C 107.300781 11.996094 107.96875 11.339844 108.796875 11.300781 C 109.644531 11.261719 110.355469 11.855469 110.484375 12.675781 L 119.988281 72.808594 L 126.527344 53.253906 C 126.738281 52.621094 127.320312 52.179688 127.988281 52.140625 C 128.652344 52.105469 129.277344 52.484375 129.558594 53.089844 L 135.933594 67.003906 L 154.632812 67.003906 C 155.535156 67.003906 156.261719 67.734375 156.261719 68.636719 C 156.261719 69.535156 155.535156 70.265625 154.632812 70.265625 L 134.886719 70.265625 C 134.246094 70.265625 133.667969 69.894531 133.402344 69.316406 L 128.3125 58.207031 L 120.964844 80.171875 C 120.726562 80.886719 120.027344 81.34375 119.28125 81.28125 C 118.53125 81.21875 117.921875 80.652344 117.804688 79.910156 L 109.558594 27.722656 L 103.589844 120.648438 C 103.539062 121.449219 102.914062 122.09375 102.117188 122.167969 C 102.0625 122.171875 102.011719 122.175781 101.960938 122.175781 Z M 134.886719 72.34375 C 134.808594 72.34375 134.722656 72.339844 134.644531 72.335938 C 133.378906 74.417969 131.851562 76.359375 130.085938 78.128906 L 106.917969 101.296875 L 106.597656 106.226562 L 132.390625 80.433594 C 134.816406 78.011719 136.832031 75.285156 138.398438 72.34375 Z M 74.125 134.089844 L 18.167969 78.128906 C 16.21875 76.179688 14.5625 74.015625 13.226562 71.691406 L 9.519531 71.691406 C 11.128906 74.882812 13.257812 77.832031 15.859375 80.433594 L 74.125 138.703125 L 96.941406 115.886719 L 95.996094 112.21875 Z M 84.296875 32.34375 L 74.125 42.511719 L 63.953125 32.34375 C 57.53125 25.917969 48.988281 22.378906 39.90625 22.378906 C 30.820312 22.378906 22.28125 25.917969 15.859375 32.34375 C 9.4375 38.765625 5.898438 47.304688 5.898438 56.386719 C 5.898438 59.078125 6.207031 61.71875 6.8125 64.273438 L 10.179688 64.273438 C 9.507812 61.730469 9.160156 59.085938 9.160156 56.386719 C 9.160156 48.175781 12.359375 40.457031 18.167969 34.648438 C 23.972656 28.84375 31.695312 25.644531 39.90625 25.644531 C 48.117188 25.644531 55.839844 28.84375 61.648438 34.648438 L 74.125 47.128906 L 86.605469 34.648438 C 91.453125 29.800781 97.636719 26.769531 104.328125 25.90625 L 104.539062 22.589844 C 96.894531 23.4375 89.816406 26.820312 84.296875 32.34375 Z M 132.390625 32.34375 C 127.371094 27.320312 121.058594 24.0625 114.203125 22.878906 L 114.742188 26.308594 C 120.515625 27.523438 125.820312 30.382812 130.085938 34.648438 C 135.894531 40.457031 139.09375 48.175781 139.09375 56.386719 C 139.09375 59.320312 138.6875 62.1875 137.894531 64.925781 L 141.277344 64.925781 C 141.988281 62.171875 142.355469 59.308594 142.355469 56.386719 C 142.355469 47.304688 138.816406 38.765625 132.390625 32.34375 " fill-opacity="1" fill-rule="nonzero"/></g></svg>