<svg width="20" height="23" viewBox="0 0 20 23" fill="none" xmlns="http://www.w3.org/2000/svg">
<path fill-rule="evenodd" clip-rule="evenodd" d="M7.31458 0.000169698C7.65132 0.00512145 7.97745 0.118738 8.24437 0.324091C8.51129 0.529443 8.70472 0.81554 8.79583 1.13975L12.1917 13.2127L13.6406 9.34809C13.7522 9.05005 13.9522 8.7932 14.2137 8.61189C14.4753 8.43058 14.7859 8.33345 15.1042 8.3335H18.2292C18.6436 8.3335 19.041 8.49812 19.334 8.79115C19.627 9.08418 19.7917 9.4816 19.7917 9.896C19.7917 10.3104 19.627 10.7078 19.334 11.0009C19.041 11.2939 18.6436 11.4585 18.2292 11.4585H16.1875L13.4427 18.7783C13.3272 19.0869 13.1172 19.3511 12.8425 19.5331C12.5679 19.7152 12.2427 19.8057 11.9135 19.7919C11.5843 19.778 11.2679 19.6604 11.0096 19.4559C10.7512 19.2514 10.5641 18.9705 10.475 18.6533L7.2125 7.05225L6.17917 10.3606C6.08009 10.6787 5.8819 10.9569 5.61355 11.1544C5.34519 11.3519 5.02071 11.4585 4.6875 11.4585H1.5625C1.1481 11.4585 0.750671 11.2939 0.457646 11.0009C0.16462 10.7078 0 10.3104 0 9.896C0 9.4816 0.16462 9.08418 0.457646 8.79115C0.750671 8.49812 1.1481 8.3335 1.5625 8.3335H3.53854L5.8 1.09704C5.9004 0.775324 6.10212 0.494687 6.37508 0.297008C6.64804 0.0993291 6.9776 -0.00479584 7.31458 0.000169698Z" fill="#3B82F6"/>
</svg>
