<svg width="16" height="16" viewBox="0 0 16 16" fill="none" xmlns="http://www.w3.org/2000/svg">
<path d="M7.96 12.8C8.24 12.8 8.4768 12.7032 8.67039 12.5096C8.864 12.316 8.96053 12.0795 8.95999 11.8C8.95946 11.5205 8.86293 11.2837 8.67039 11.0896C8.47786 10.8955 8.24106 10.7989 7.96 10.8C7.67893 10.8011 7.4424 10.8979 7.2504 11.0904C7.0584 11.2829 6.9616 11.5195 6.96 11.8C6.9584 12.0805 7.0552 12.3173 7.2504 12.5104C7.4456 12.7035 7.68213 12.8 7.96 12.8ZM7.24 9.71999H8.71999C8.71999 9.27999 8.77013 8.93333 8.8704 8.67999C8.97066 8.42666 9.25386 8.07999 9.71999 7.63999C10.0667 7.29333 10.34 6.9632 10.54 6.6496C10.74 6.336 10.84 5.95946 10.84 5.52C10.84 4.77333 10.5667 4.2 10.02 3.8C9.47333 3.4 8.82666 3.2 8.08 3.2C7.32 3.2 6.70346 3.4 6.2304 3.8C5.75733 4.2 5.4272 4.68 5.24 5.24L6.56 5.76C6.62666 5.52 6.7768 5.26 7.0104 4.98C7.244 4.7 7.60053 4.56 8.08 4.56C8.50666 4.56 8.82666 4.6768 9.04 4.9104C9.25333 5.144 9.35999 5.40053 9.35999 5.68C9.35999 5.94666 9.27999 6.1968 9.11999 6.4304C8.95999 6.664 8.75999 6.88053 8.51999 7.08C7.93333 7.59999 7.57333 7.99333 7.44 8.25999C7.30666 8.52666 7.24 9.01333 7.24 9.71999ZM8 16C6.89333 16 5.85333 15.7901 4.88 15.3704C3.90667 14.9507 3.06 14.3805 2.34 13.66C1.62 12.9395 1.05013 12.0928 0.630401 11.12C0.210668 10.1472 0.000534346 9.10719 1.01266e-06 7.99999C-0.00053232 6.8928 0.209601 5.8528 0.630401 4.88C1.0512 3.9072 1.62107 3.06053 2.34 2.34C3.05893 1.61947 3.9056 1.0496 4.88 0.630403C5.8544 0.211204 6.8944 0.00107071 8 4.0404e-06C9.10559 -0.00106262 10.1456 0.209071 11.12 0.630403C12.0944 1.05174 12.9411 1.6216 13.66 2.34C14.3789 3.0584 14.9491 3.90507 15.3704 4.88C15.7917 5.85493 16.0016 6.89493 16 7.99999C15.9984 9.10506 15.7883 10.1451 15.3696 11.12C14.9509 12.0949 14.3811 12.9416 13.66 13.66C12.9389 14.3784 12.0923 14.9485 11.12 15.3704C10.1477 15.7923 9.10773 16.0021 8 16ZM8 14.4C9.78666 14.4 11.3 13.78 12.54 12.54C13.78 11.3 14.4 9.78666 14.4 7.99999C14.4 6.21333 13.78 4.7 12.54 3.46C11.3 2.22 9.78666 1.6 8 1.6C6.21333 1.6 4.7 2.22 3.46 3.46C2.22 4.7 1.6 6.21333 1.6 7.99999C1.6 9.78666 2.22 11.3 3.46 12.54C4.7 13.78 6.21333 14.4 8 14.4Z" fill="white"/>
</svg>
