<svg width="38" height="38" viewBox="0 0 38 38" fill="none" xmlns="http://www.w3.org/2000/svg">
<path fill-rule="evenodd" clip-rule="evenodd" d="M17.2515 0.609972C17.6422 0.219407 18.172 0 18.7244 0C19.2768 0 19.8066 0.219407 20.1973 0.609972L32.6973 13.11L36.864 17.2766C37.2435 17.6696 37.4535 18.1958 37.4487 18.7421C37.444 19.2883 37.2249 19.8108 36.8386 20.1971C36.4523 20.5834 35.9298 20.8025 35.3836 20.8072C34.8373 20.812 34.3111 20.602 33.9181 20.2225L33.3077 19.6121V33.3329C33.3077 34.438 32.8687 35.4978 32.0873 36.2792C31.3059 37.0606 30.2461 37.4996 29.1411 37.4996H22.8911C22.3385 37.4996 21.8086 37.2801 21.4179 36.8894C21.0272 36.4987 20.8077 35.9688 20.8077 35.4162V29.1662H16.6411V35.4162C16.6411 35.9688 16.4216 36.4987 16.0309 36.8894C15.6402 37.2801 15.1103 37.4996 14.5577 37.4996H8.30773C7.20266 37.4996 6.14286 37.0606 5.36145 36.2792C4.58005 35.4978 4.14107 34.438 4.14107 33.3329V19.6121L3.53065 20.2225C3.13773 20.602 2.61147 20.812 2.06523 20.8072C1.51899 20.8025 0.996461 20.5834 0.610194 20.1971C0.223927 19.8108 0.00482546 19.2883 7.87555e-05 18.7421C-0.00466795 18.1958 0.20532 17.6696 0.584816 17.2766L4.75148 13.11L17.2515 0.609972Z" fill="black"/>
</svg>
