<svg xmlns="http://www.w3.org/2000/svg" xmlns:xlink="http://www.w3.org/1999/xlink" width="200" zoomAndPan="magnify" viewBox="0 0 150 157.92" height="200" preserveAspectRatio="xMidYMid meet" version="1.0"><defs><clipPath id="38f16e67d3"><path d="M 1 4 L 149 4 L 149 146.3125 L 1 146.3125 Z M 1 4 " clip-rule="nonzero"/></clipPath></defs><g clip-path="url(#38f16e67d3)"><path fill="#000000" d="M 140.480469 78.355469 L 134.46875 78.355469 L 134.46875 140.0625 C 134.441406 140.476562 134.375 140.886719 134.269531 141.289062 C 134.164062 141.691406 134.019531 142.082031 133.839844 142.457031 C 133.65625 142.832031 133.441406 143.1875 133.1875 143.519531 C 132.9375 143.851562 132.65625 144.15625 132.347656 144.433594 C 132.035156 144.710938 131.699219 144.957031 131.34375 145.167969 C 130.984375 145.382812 130.609375 145.554688 130.214844 145.695312 C 129.820312 145.835938 129.417969 145.933594 129.007812 145.992188 C 128.59375 146.054688 128.179688 146.074219 127.765625 146.050781 L 92.234375 146.050781 L 92.234375 103.976562 C 92.234375 103.691406 92.207031 103.402344 92.148438 103.121094 C 92.09375 102.835938 92.011719 102.5625 91.898438 102.296875 C 91.789062 102.03125 91.652344 101.777344 91.492188 101.535156 C 91.332031 101.296875 91.152344 101.074219 90.949219 100.871094 C 90.742188 100.667969 90.523438 100.484375 90.28125 100.324219 C 90.042969 100.164062 89.789062 100.027344 89.523438 99.917969 C 89.257812 99.804688 88.980469 99.722656 88.699219 99.667969 C 88.417969 99.609375 88.132812 99.582031 87.84375 99.582031 L 62.0625 99.582031 C 61.773438 99.582031 61.488281 99.609375 61.207031 99.667969 C 60.925781 99.722656 60.648438 99.804688 60.382812 99.917969 C 60.117188 100.027344 59.863281 100.164062 59.625 100.324219 C 59.382812 100.484375 59.160156 100.664062 58.957031 100.871094 C 58.753906 101.074219 58.570312 101.296875 58.410156 101.535156 C 58.25 101.777344 58.117188 102.027344 58.007812 102.296875 C 57.894531 102.5625 57.8125 102.835938 57.757812 103.121094 C 57.699219 103.402344 57.671875 103.6875 57.671875 103.976562 L 57.671875 146.050781 L 22.140625 146.050781 C 21.722656 146.070312 21.3125 146.054688 20.898438 145.992188 C 20.488281 145.933594 20.085938 145.835938 19.695312 145.699219 C 19.304688 145.5625 18.929688 145.386719 18.570312 145.175781 C 18.214844 144.964844 17.878906 144.71875 17.570312 144.441406 C 17.261719 144.164062 16.980469 143.863281 16.730469 143.53125 C 16.480469 143.199219 16.265625 142.84375 16.085938 142.472656 C 15.902344 142.097656 15.761719 141.710938 15.65625 141.308594 C 15.550781 140.90625 15.488281 140.496094 15.460938 140.082031 L 15.460938 78.355469 L 9.421875 78.355469 C 2.726562 78.355469 -0.898438 72.046875 3.484375 68 L 69.59375 6.855469 C 70.007812 6.503906 70.449219 6.191406 70.917969 5.917969 C 71.386719 5.648438 71.875 5.417969 72.382812 5.230469 C 72.890625 5.046875 73.414062 4.90625 73.945312 4.8125 C 74.480469 4.71875 75.019531 4.671875 75.558594 4.671875 C 76.101562 4.675781 76.640625 4.722656 77.171875 4.820312 C 77.707031 4.914062 78.226562 5.058594 78.734375 5.246094 C 79.242188 5.433594 79.730469 5.664062 80.199219 5.9375 C 80.667969 6.210938 81.105469 6.527344 81.519531 6.878906 C 103.160156 27.257812 124.8125 47.640625 146.472656 68.023438 C 150.777344 72.109375 147.152344 78.355469 140.480469 78.355469 Z M 140.480469 78.355469 " fill-opacity="1" fill-rule="nonzero"/></g></svg>