<svg width="14" height="14" viewBox="0 0 14 14" fill="none" xmlns="http://www.w3.org/2000/svg">
<path fill-rule="evenodd" clip-rule="evenodd" d="M1.89849 10.7779C1.71085 10.9656 1.45635 11.071 1.19099 11.071C0.925622 11.071 0.671126 10.9656 0.483486 10.7779C0.295845 10.5903 0.19043 10.3358 0.19043 10.0704C0.19043 9.80507 0.295845 9.55057 0.483486 9.36293L3.81649 6.03093L3.82349 6.02393C4.09581 5.75721 4.46181 5.60783 4.84299 5.60783C5.22417 5.60783 5.59017 5.75721 5.86249 6.02393L5.86949 6.03093L7.57049 7.73193L9.91749 5.24993L8.87749 4.20993C8.77273 4.10504 8.7014 3.97147 8.67252 3.82607C8.64364 3.68067 8.65849 3.52997 8.7152 3.39301C8.77191 3.25604 8.86794 3.13896 8.99115 3.05654C9.11437 2.97412 9.25924 2.93006 9.40749 2.92993H13.0605C13.2594 2.92993 13.4502 3.00895 13.5908 3.1496C13.7315 3.29025 13.8105 3.48102 13.8105 3.67993V7.33193C13.8104 7.48017 13.7663 7.62505 13.6839 7.74826C13.6015 7.87148 13.4844 7.96751 13.3474 8.02422C13.2104 8.08093 13.0597 8.09578 12.9143 8.0669C12.769 8.03801 12.6354 7.96669 12.5305 7.86193L11.3325 6.66393L8.62849 9.52493L8.60149 9.55193C8.32917 9.81865 7.96317 9.96803 7.58199 9.96803C7.20081 9.96803 6.83481 9.81865 6.56249 9.55193L6.55549 9.54493L4.84249 7.83293L1.89849 10.7779Z" fill="#2D8C83"/>
</svg>
