<svg width="15" height="15" viewBox="0 0 15 15" fill="none" xmlns="http://www.w3.org/2000/svg">
<path d="M7.5 15C6.475 15 5.50625 14.803 4.59375 14.409C3.68125 14.015 2.8845 13.4775 2.2035 12.7965C1.5225 12.1155 0.985 11.3188 0.591 10.4062C0.197 9.49375 0 8.525 0 7.5C0 6.4625 0.197 5.49075 0.591 4.58475C0.985 3.67875 1.5225 2.885 2.2035 2.2035C2.8845 1.522 3.68125 0.9845 4.59375 0.591C5.50625 0.1975 6.475 0.0005 7.5 0C8.5375 0 9.5095 0.197 10.416 0.591C11.3225 0.985 12.116 1.5225 12.7965 2.2035C13.477 2.8845 14.0145 3.67825 14.409 4.58475C14.8035 5.49125 15.0005 6.463 15 7.5C15 8.525 14.803 9.49375 14.409 10.4062C14.015 11.3188 13.4775 12.1157 12.7965 12.7972C12.1155 13.4788 11.3217 14.0162 10.4152 14.4097C9.50875 14.8032 8.537 15 7.5 15ZM7.5 13.4625C7.825 13.0125 8.10625 12.5438 8.34375 12.0563C8.58125 11.5688 8.775 11.05 8.925 10.5H6.075C6.225 11.05 6.41875 11.5688 6.65625 12.0563C6.89375 12.5438 7.175 13.0125 7.5 13.4625ZM5.55 13.1625C5.325 12.75 5.12825 12.3217 4.95975 11.8778C4.79125 11.4338 4.6505 10.9745 4.5375 10.5H2.325C2.6875 11.125 3.14075 11.6687 3.68475 12.1312C4.22875 12.5937 4.8505 12.9375 5.55 13.1625ZM9.45 13.1625C10.15 12.9375 10.772 12.5937 11.316 12.1312C11.86 11.6687 12.313 11.125 12.675 10.5H10.4625C10.35 10.975 10.2095 11.4345 10.041 11.8785C9.8725 12.3225 9.6755 12.7505 9.45 13.1625ZM1.6875 9H4.2375C4.2 8.75 4.172 8.50325 4.1535 8.25975C4.135 8.01625 4.1255 7.763 4.125 7.5C4.1245 7.237 4.134 6.984 4.1535 6.741C4.173 6.498 4.201 6.251 4.2375 6H1.6875C1.625 6.25 1.57825 6.497 1.54725 6.741C1.51625 6.985 1.5005 7.238 1.5 7.5C1.4995 7.762 1.51525 8.01525 1.54725 8.25975C1.57925 8.50425 1.626 8.751 1.6875 9ZM5.7375 9H9.2625C9.3 8.75 9.32825 8.50325 9.34725 8.25975C9.36625 8.01625 9.3755 7.763 9.375 7.5C9.3745 7.237 9.365 6.984 9.3465 6.741C9.328 6.498 9.3 6.251 9.2625 6H5.7375C5.7 6.25 5.672 6.497 5.6535 6.741C5.635 6.985 5.6255 7.238 5.625 7.5C5.6245 7.762 5.634 8.01525 5.6535 8.25975C5.673 8.50425 5.701 8.751 5.7375 9ZM10.7625 9H13.3125C13.375 8.75 13.422 8.50325 13.4535 8.25975C13.485 8.01625 13.5005 7.763 13.5 7.5C13.4995 7.237 13.484 6.984 13.4535 6.741C13.423 6.498 13.376 6.251 13.3125 6H10.7625C10.8 6.25 10.8282 6.497 10.8472 6.741C10.8662 6.985 10.8755 7.238 10.875 7.5C10.8745 7.762 10.865 8.01525 10.8465 8.25975C10.828 8.50425 10.8 8.751 10.7625 9ZM10.4625 4.5H12.675C12.3125 3.875 11.8595 3.33125 11.316 2.86875C10.7725 2.40625 10.1505 2.0625 9.45 1.8375C9.675 2.25 9.872 2.67825 10.041 3.12225C10.21 3.56625 10.3505 4.0255 10.4625 4.5ZM6.075 4.5H8.925C8.775 3.95 8.58125 3.43125 8.34375 2.94375C8.10625 2.45625 7.825 1.9875 7.5 1.5375C7.175 1.9875 6.89375 2.45625 6.65625 2.94375C6.41875 3.43125 6.225 3.95 6.075 4.5ZM2.325 4.5H4.5375C4.65 4.025 4.79075 3.5655 4.95975 3.1215C5.12875 2.6775 5.3255 2.2495 5.55 1.8375C4.85 2.0625 4.228 2.40625 3.684 2.86875C3.14 3.33125 2.687 3.875 2.325 4.5Z" fill="white"/>
</svg>
