<svg xmlns="http://www.w3.org/2000/svg" width="20" height="20" viewBox="0 0 20 20" fill="none">
  <path d="M8.75 5C8.75 4.825 8.75 4.73875 8.76 4.66625C8.79182 4.43714 8.89754 4.22466 9.0611 4.0611C9.22466 3.89754 9.43714 3.79182 9.66625 3.76C9.7375 3.75 9.825 3.75 10 3.75C10.175 3.75 10.2613 3.75 10.3338 3.76C10.5629 3.79182 10.7753 3.89754 10.9389 4.0611C11.1025 4.22466 11.2082 4.43714 11.24 4.66625C11.25 4.7375 11.25 4.825 11.25 5C11.25 5.175 11.25 5.26125 11.24 5.33375C11.2082 5.56287 11.1025 5.77534 10.9389 5.9389C10.7753 6.10246 10.5629 6.20818 10.3338 6.24C10.2625 6.25 10.175 6.25 10 6.25C9.825 6.25 9.73875 6.25 9.66625 6.24C9.43714 6.20818 9.22466 6.10246 9.0611 5.9389C8.89754 5.77534 8.79182 5.56287 8.76 5.33375C8.75 5.2625 8.75 5.175 8.75 5ZM8.75 10C8.75 9.825 8.75 9.73875 8.76 9.66625C8.79182 9.43714 8.89754 9.22466 9.0611 9.0611C9.22466 8.89754 9.43714 8.79182 9.66625 8.76C9.7375 8.75 9.825 8.75 10 8.75C10.175 8.75 10.2613 8.75 10.3338 8.76C10.5629 8.79182 10.7753 8.89754 10.9389 9.0611C11.1025 9.22466 11.2082 9.43714 11.24 9.66625C11.25 9.7375 11.25 9.825 11.25 10C11.25 10.175 11.25 10.2613 11.24 10.3338C11.2082 10.5629 11.1025 10.7753 10.9389 10.9389C10.7753 11.1025 10.5629 11.2082 10.3338 11.24C10.2625 11.25 10.175 11.25 10 11.25C9.825 11.25 9.73875 11.25 9.66625 11.24C9.43714 11.2082 9.22466 11.1025 9.0611 10.9389C8.89754 10.7753 8.79182 10.5629 8.76 10.3338C8.75 10.2625 8.75 10.175 8.75 10ZM8.75 15C8.75 14.8263 8.75 14.7387 8.76 14.6663C8.792 14.4375 8.89765 14.2255 9.06095 14.0622C9.22424 13.8989 9.43629 13.7933 9.665 13.7612C9.73875 13.7512 9.825 13.7513 9.99875 13.7513C10.1725 13.7513 10.2612 13.7512 10.3325 13.7612C10.5612 13.7933 10.7733 13.8989 10.9366 14.0622C11.0998 14.2255 11.2055 14.4375 11.2375 14.6663C11.2475 14.7387 11.2475 14.8263 11.2475 15C11.2475 15.1737 11.2475 15.2613 11.2375 15.3337C11.2055 15.5625 11.0998 15.7745 10.9366 15.9378C10.7733 16.1011 10.5612 16.2067 10.3325 16.2388C10.26 16.2488 10.1725 16.2487 9.99875 16.2487C9.825 16.2487 9.7375 16.2488 9.665 16.2388C9.43629 16.2067 9.22424 16.1011 9.06095 15.9378C8.89765 15.7745 8.792 15.5625 8.76 15.3337C8.75 15.2613 8.75 15.1737 8.75 15Z" fill="#605F5F"/>
</svg>