<svg width="15" height="19" viewBox="0 0 15 19" fill="none" xmlns="http://www.w3.org/2000/svg">
<path fill-rule="evenodd" clip-rule="evenodd" d="M1.62631 5.87369C1.62631 4.31589 2.24514 2.82189 3.34667 1.72036C4.4482 0.618833 5.9422 0 7.5 0C9.0578 0 10.5518 0.618833 11.6533 1.72036C12.7549 2.82189 13.3737 4.31589 13.3737 5.87369V9.03206L14.9025 12.0897C14.9729 12.2305 15.0061 12.3869 14.9991 12.544C14.992 12.7012 14.9449 12.854 14.8621 12.9879C14.7794 13.1217 14.6638 13.2322 14.5264 13.3088C14.3889 13.3854 14.2342 13.4256 14.0769 13.4256H10.7507C10.564 14.1457 10.1435 14.7835 9.55517 15.2388C8.96683 15.6941 8.24394 15.9411 7.5 15.9411C6.75606 15.9411 6.03317 15.6941 5.44483 15.2388C4.85648 14.7835 4.43598 14.1457 4.24933 13.4256H0.923145C0.765796 13.4256 0.611052 13.3854 0.473612 13.3088C0.336172 13.2322 0.2206 13.1217 0.13787 12.9879C0.0551414 12.854 0.00800308 12.7012 0.000932481 12.544C-0.00613812 12.3869 0.0270938 12.2305 0.097472 12.0897L1.62631 9.03206V5.87369ZM6.04668 13.4256C6.19398 13.6807 6.40583 13.8925 6.66094 14.0398C6.91605 14.1871 7.20543 14.2646 7.5 14.2646C7.79457 14.2646 8.08395 14.1871 8.33906 14.0398C8.59417 13.8925 8.80602 13.6807 8.95332 13.4256H6.04668ZM7.5 1.6782C6.38729 1.6782 5.32015 2.12022 4.53334 2.90703C3.74653 3.69384 3.30451 4.76098 3.30451 5.87369V9.03206C3.30449 9.29246 3.24387 9.54928 3.12746 9.78221L2.14571 11.7474H12.8551L11.8734 9.78221C11.7567 9.54935 11.6958 9.29253 11.6955 9.03206V5.87369C11.6955 4.76098 11.2535 3.69384 10.4667 2.90703C9.67985 2.12022 8.61271 1.6782 7.5 1.6782Z" fill="white"/>
</svg>
