<svg width="50" height="50" viewBox="0 0 50 50" fill="none" xmlns="http://www.w3.org/2000/svg">
<path d="M24.9999 35.4167C23.8948 35.4167 22.835 34.9777 22.0536 34.1963C21.2722 33.4149 20.8333 32.3551 20.8333 31.25C20.8333 28.9375 22.6874 27.0834 24.9999 27.0834C26.105 27.0834 27.1648 27.5224 27.9462 28.3038C28.7276 29.0852 29.1666 30.145 29.1666 31.25C29.1666 32.3551 28.7276 33.4149 27.9462 34.1963C27.1648 34.9777 26.105 35.4167 24.9999 35.4167ZM37.4999 41.6667V20.8334H12.4999V41.6667H37.4999ZM37.4999 16.6667C38.605 16.6667 39.6648 17.1057 40.4462 17.8871C41.2276 18.6685 41.6666 19.7283 41.6666 20.8334V41.6667C41.6666 42.7718 41.2276 43.8316 40.4462 44.613C39.6648 45.3944 38.605 45.8334 37.4999 45.8334H12.4999C11.3948 45.8334 10.335 45.3944 9.55364 44.613C8.77224 43.8316 8.33325 42.7718 8.33325 41.6667V20.8334C8.33325 18.5209 10.1874 16.6667 12.4999 16.6667H14.5833V12.5C14.5833 9.73737 15.6807 7.08785 17.6342 5.13435C19.5877 3.18084 22.2372 2.08337 24.9999 2.08337C26.3679 2.08337 27.7224 2.35281 28.9862 2.8763C30.25 3.39978 31.3983 4.16707 32.3656 5.13435C33.3329 6.10162 34.1002 7.24995 34.6237 8.51375C35.1472 9.77756 35.4166 11.1321 35.4166 12.5V16.6667H37.4999ZM24.9999 6.25004C23.3423 6.25004 21.7526 6.90852 20.5805 8.08062C19.4084 9.25273 18.7499 10.8424 18.7499 12.5V16.6667H31.2499V12.5C31.2499 10.8424 30.5914 9.25273 29.4193 8.08062C28.2472 6.90852 26.6575 6.25004 24.9999 6.25004Z" fill="black"/>
</svg>
