<svg width="24" height="24" viewBox="0 0 24 24" fill="none" xmlns="http://www.w3.org/2000/svg">
<path d="M13.9189 15.907H18.8898V20.8779M9.94216 7.95347H4.97123V2.98254M19.3054 8.95064C18.748 7.5709 17.8147 6.37521 16.6115 5.49949C15.4084 4.62376 13.9838 4.10313 12.4995 3.99677C11.0152 3.89041 9.53084 4.20259 8.21515 4.89782C6.89945 5.59305 5.80519 6.64345 5.05673 7.92961M4.55566 14.9098C5.1132 16.2893 6.04651 17.4847 7.24954 18.3602C8.45257 19.2358 9.87706 19.7563 11.3612 19.8627C12.8452 19.969 14.3294 19.6569 15.645 18.9619C16.9606 18.2668 18.0548 17.2167 18.8033 15.9308" stroke="black" stroke-opacity="0.6" stroke-width="2" stroke-linecap="round" stroke-linejoin="round"/>
</svg>
