<svg xmlns="http://www.w3.org/2000/svg" width="24" height="24" viewBox="0 0 24 24" fill="none">
  <path fill-rule="evenodd" clip-rule="evenodd" d="M9.94011 12.6461L7.69211 11.8971C5.33911 11.1131 4.16211 10.7211 4.16211 10.0001C4.16211 9.2801 5.33911 8.8871 7.69211 8.1031L16.2051 5.2651C17.8611 4.7131 18.6891 4.4371 19.1261 4.8741C19.5631 5.3111 19.2871 6.1391 18.7361 7.7941L15.8971 16.3081C15.1131 18.6611 14.7211 19.8381 14.0001 19.8381C13.2801 19.8381 12.8871 18.6611 12.1031 16.3081L11.3531 14.0611L15.7071 9.7071C15.8893 9.5185 15.9901 9.2659 15.9878 9.0037C15.9855 8.74151 15.8803 8.49069 15.6949 8.30529C15.5095 8.11988 15.2587 8.01471 14.9965 8.01243C14.7343 8.01015 14.4817 8.11095 14.2931 8.2931L9.94011 12.6461Z" fill="black"/>
</svg>