<svg xmlns="http://www.w3.org/2000/svg" xmlns:xlink="http://www.w3.org/1999/xlink" width="200" zoomAndPan="magnify" viewBox="0 0 150 157.92" height="200" preserveAspectRatio="xMidYMid meet" version="1.0"><defs><clipPath id="b3a04bf0fe"><path d="M 0.0390625 0 L 149.960938 0 L 149.960938 149.925781 L 0.0390625 149.925781 Z M 0.0390625 0 " clip-rule="nonzero"/></clipPath></defs><g clip-path="url(#b3a04bf0fe)"><path fill="#000000" d="M 85.203125 149.917969 L 64.796875 149.917969 C 64.320312 149.917969 63.84375 149.871094 63.375 149.777344 C 62.90625 149.683594 62.449219 149.542969 62.007812 149.359375 C 61.566406 149.175781 61.144531 148.953125 60.746094 148.683594 C 60.351562 148.417969 59.980469 148.117188 59.644531 147.777344 C 59.304688 147.441406 59.003906 147.070312 58.738281 146.671875 C 58.472656 146.277344 58.246094 145.855469 58.0625 145.414062 C 57.878906 144.972656 57.742188 144.515625 57.648438 144.046875 C 57.554688 143.578125 57.507812 143.101562 57.507812 142.625 L 57.507812 128.386719 C 54.785156 127.492188 52.148438 126.398438 49.597656 125.101562 L 39.527344 135.191406 C 39.1875 135.53125 38.816406 135.832031 38.421875 136.097656 C 38.023438 136.363281 37.601562 136.589844 37.160156 136.773438 C 36.71875 136.953125 36.261719 137.09375 35.792969 137.1875 C 35.324219 137.28125 34.847656 137.328125 34.371094 137.328125 C 33.890625 137.328125 33.417969 137.28125 32.949219 137.1875 C 32.476562 137.09375 32.023438 136.953125 31.578125 136.773438 C 31.136719 136.589844 30.71875 136.363281 30.320312 136.097656 C 29.921875 135.832031 29.550781 135.53125 29.214844 135.191406 L 14.769531 120.75 C 14.429688 120.410156 14.128906 120.042969 13.863281 119.644531 C 13.597656 119.246094 13.375 118.824219 13.191406 118.382812 C 13.007812 117.941406 12.867188 117.484375 12.777344 117.015625 C 12.683594 116.546875 12.636719 116.070312 12.636719 115.59375 C 12.636719 115.113281 12.683594 114.640625 12.777344 114.171875 C 12.867188 113.699219 13.007812 113.246094 13.191406 112.800781 C 13.375 112.359375 13.597656 111.941406 13.863281 111.542969 C 14.128906 111.144531 14.429688 110.773438 14.769531 110.4375 L 24.859375 100.359375 C 23.570312 97.808594 22.480469 95.171875 21.59375 92.449219 L 7.335938 92.449219 C 6.855469 92.449219 6.382812 92.402344 5.914062 92.308594 C 5.445312 92.214844 4.988281 92.078125 4.546875 91.894531 C 4.105469 91.710938 3.683594 91.484375 3.285156 91.21875 C 2.890625 90.953125 2.519531 90.652344 2.183594 90.3125 C 1.84375 89.976562 1.542969 89.605469 1.277344 89.210938 C 1.011719 88.8125 0.785156 88.390625 0.601562 87.949219 C 0.417969 87.507812 0.28125 87.050781 0.1875 86.582031 C 0.09375 86.113281 0.046875 85.640625 0.046875 85.160156 L 0.046875 64.757812 C 0.046875 64.28125 0.09375 63.808594 0.1875 63.335938 C 0.28125 62.867188 0.417969 62.414062 0.601562 61.96875 C 0.785156 61.527344 1.011719 61.109375 1.277344 60.710938 C 1.542969 60.3125 1.84375 59.945312 2.183594 59.605469 C 2.519531 59.269531 2.890625 58.964844 3.285156 58.699219 C 3.683594 58.433594 4.105469 58.210938 4.546875 58.027344 C 4.988281 57.84375 5.445312 57.703125 5.914062 57.609375 C 6.382812 57.515625 6.855469 57.46875 7.335938 57.46875 L 21.574219 57.46875 C 22.460938 54.75 23.550781 52.113281 24.839844 49.558594 L 14.769531 39.488281 C 14.429688 39.148438 14.128906 38.78125 13.863281 38.382812 C 13.597656 37.984375 13.375 37.5625 13.191406 37.121094 C 13.007812 36.679688 12.867188 36.222656 12.777344 35.753906 C 12.683594 35.285156 12.636719 34.808594 12.636719 34.332031 C 12.636719 33.851562 12.683594 33.378906 12.777344 32.910156 C 12.867188 32.441406 13.007812 31.984375 13.191406 31.542969 C 13.375 31.097656 13.597656 30.679688 13.863281 30.28125 C 14.128906 29.882812 14.429688 29.515625 14.769531 29.175781 L 29.214844 14.730469 C 29.550781 14.394531 29.921875 14.089844 30.320312 13.824219 C 30.71875 13.558594 31.136719 13.335938 31.578125 13.152344 C 32.023438 12.96875 32.476562 12.832031 32.949219 12.738281 C 33.417969 12.644531 33.890625 12.597656 34.371094 12.597656 C 34.847656 12.597656 35.324219 12.644531 35.792969 12.738281 C 36.261719 12.832031 36.71875 12.96875 37.160156 13.152344 C 37.601562 13.335938 38.023438 13.558594 38.421875 13.824219 C 38.816406 14.089844 39.1875 14.394531 39.527344 14.730469 L 49.601562 24.820312 C 52.15625 23.53125 54.792969 22.441406 57.511719 21.554688 L 57.511719 7.296875 C 57.511719 6.816406 57.558594 6.34375 57.652344 5.875 C 57.746094 5.40625 57.882812 4.949219 58.066406 4.507812 C 58.25 4.066406 58.476562 3.644531 58.742188 3.25 C 59.007812 2.851562 59.308594 2.484375 59.648438 2.144531 C 59.988281 1.804688 60.355469 1.503906 60.753906 1.238281 C 61.152344 0.972656 61.570312 0.746094 62.011719 0.5625 C 62.453125 0.378906 62.910156 0.242188 63.378906 0.148438 C 63.847656 0.0546875 64.320312 0.0078125 64.800781 0.0078125 L 85.207031 0.0078125 C 85.683594 0.0078125 86.160156 0.0546875 86.628906 0.148438 C 87.097656 0.242188 87.554688 0.378906 87.996094 0.5625 C 88.4375 0.746094 88.855469 0.972656 89.253906 1.238281 C 89.652344 1.503906 90.019531 1.804688 90.359375 2.144531 C 90.695312 2.484375 91 2.851562 91.265625 3.25 C 91.53125 3.644531 91.753906 4.066406 91.9375 4.507812 C 92.121094 4.949219 92.261719 5.40625 92.355469 5.875 C 92.449219 6.34375 92.496094 6.816406 92.496094 7.296875 L 92.496094 21.539062 C 95.214844 22.425781 97.851562 23.511719 100.40625 24.804688 L 110.472656 14.730469 C 110.8125 14.394531 111.183594 14.089844 111.578125 13.824219 C 111.976562 13.558594 112.398438 13.335938 112.839844 13.152344 C 113.28125 12.96875 113.738281 12.832031 114.207031 12.738281 C 114.675781 12.644531 115.152344 12.597656 115.628906 12.597656 C 116.109375 12.597656 116.582031 12.644531 117.050781 12.738281 C 117.523438 12.832031 117.976562 12.96875 118.421875 13.152344 C 118.863281 13.335938 119.28125 13.558594 119.679688 13.824219 C 120.078125 14.089844 120.449219 14.394531 120.785156 14.730469 L 135.230469 29.175781 C 135.570312 29.515625 135.871094 29.882812 136.136719 30.28125 C 136.402344 30.679688 136.625 31.101562 136.808594 31.542969 C 136.992188 31.984375 137.128906 32.441406 137.222656 32.910156 C 137.316406 33.378906 137.363281 33.851562 137.363281 34.332031 C 137.363281 34.808594 137.316406 35.285156 137.222656 35.753906 C 137.128906 36.222656 136.992188 36.679688 136.808594 37.121094 C 136.625 37.5625 136.402344 37.984375 136.136719 38.382812 C 135.871094 38.78125 135.570312 39.148438 135.230469 39.488281 L 125.140625 49.5625 C 126.4375 52.117188 127.53125 54.753906 128.425781 57.472656 L 142.660156 57.472656 C 143.140625 57.472656 143.613281 57.519531 144.082031 57.613281 C 144.554688 57.707031 145.007812 57.847656 145.453125 58.027344 C 145.894531 58.210938 146.3125 58.4375 146.710938 58.703125 C 147.109375 58.96875 147.476562 59.269531 147.816406 59.609375 C 148.15625 59.949219 148.457031 60.316406 148.722656 60.714844 C 148.988281 61.113281 149.214844 61.53125 149.398438 61.972656 C 149.582031 62.414062 149.71875 62.871094 149.8125 63.339844 C 149.90625 63.808594 149.953125 64.285156 149.953125 64.761719 L 149.953125 85.167969 C 149.953125 85.648438 149.90625 86.121094 149.8125 86.589844 C 149.71875 87.058594 149.582031 87.515625 149.398438 87.957031 C 149.214844 88.398438 148.988281 88.820312 148.722656 89.21875 C 148.457031 89.617188 148.15625 89.984375 147.816406 90.320312 C 147.476562 90.660156 147.109375 90.960938 146.710938 91.230469 C 146.3125 91.496094 145.894531 91.71875 145.453125 91.902344 C 145.007812 92.085938 144.554688 92.222656 144.082031 92.316406 C 143.613281 92.410156 143.140625 92.457031 142.660156 92.457031 L 128.425781 92.457031 C 127.53125 95.179688 126.4375 97.816406 125.140625 100.367188 L 135.230469 110.4375 C 135.570312 110.777344 135.871094 111.144531 136.136719 111.542969 C 136.402344 111.941406 136.625 112.359375 136.808594 112.804688 C 136.992188 113.246094 137.128906 113.699219 137.222656 114.171875 C 137.316406 114.640625 137.363281 115.113281 137.363281 115.59375 C 137.363281 116.070312 137.316406 116.546875 137.222656 117.015625 C 137.128906 117.484375 136.992188 117.941406 136.808594 118.382812 C 136.625 118.824219 136.402344 119.246094 136.136719 119.644531 C 135.871094 120.039062 135.570312 120.410156 135.230469 120.75 L 120.785156 135.191406 C 120.449219 135.53125 120.078125 135.832031 119.679688 136.097656 C 119.28125 136.363281 118.863281 136.589844 118.421875 136.773438 C 117.976562 136.953125 117.523438 137.09375 117.050781 137.1875 C 116.582031 137.28125 116.109375 137.328125 115.628906 137.328125 C 115.152344 137.328125 114.675781 137.28125 114.207031 137.1875 C 113.738281 137.09375 113.28125 136.953125 112.839844 136.773438 C 112.398438 136.589844 111.976562 136.363281 111.578125 136.097656 C 111.183594 135.832031 110.8125 135.53125 110.472656 135.191406 L 100.398438 125.101562 C 97.847656 126.398438 95.210938 127.492188 92.488281 128.386719 L 92.488281 142.628906 C 92.488281 143.105469 92.441406 143.578125 92.347656 144.046875 C 92.253906 144.519531 92.117188 144.972656 91.933594 145.414062 C 91.75 145.855469 91.523438 146.277344 91.257812 146.675781 C 90.992188 147.070312 90.691406 147.441406 90.351562 147.777344 C 90.015625 148.117188 89.648438 148.417969 89.25 148.683594 C 88.851562 148.949219 88.433594 149.175781 87.992188 149.359375 C 87.546875 149.542969 87.09375 149.679688 86.625 149.773438 C 86.15625 149.867188 85.679688 149.917969 85.203125 149.917969 Z M 48.941406 117 C 49.589844 116.996094 50.195312 117.15625 50.753906 117.480469 C 54.339844 119.53125 58.121094 121.105469 62.105469 122.195312 C 62.488281 122.300781 62.847656 122.464844 63.175781 122.6875 C 63.507812 122.910156 63.792969 123.179688 64.035156 123.496094 C 64.277344 123.8125 64.460938 124.15625 64.585938 124.535156 C 64.714844 124.910156 64.777344 125.300781 64.777344 125.699219 L 64.777344 142.632812 C 64.777344 142.660156 64.785156 142.671875 64.8125 142.671875 L 85.21875 142.671875 C 85.238281 142.671875 85.25 142.660156 85.25 142.636719 L 85.25 125.6875 C 85.25 125.289062 85.3125 124.902344 85.441406 124.523438 C 85.570312 124.148438 85.753906 123.800781 85.996094 123.484375 C 86.238281 123.167969 86.523438 122.898438 86.851562 122.675781 C 87.183594 122.453125 87.539062 122.289062 87.925781 122.183594 C 91.90625 121.09375 95.6875 119.523438 99.269531 117.46875 C 99.613281 117.273438 99.980469 117.136719 100.371094 117.0625 C 100.761719 116.984375 101.152344 116.972656 101.546875 117.027344 C 101.9375 117.078125 102.3125 117.195312 102.667969 117.367188 C 103.023438 117.542969 103.34375 117.773438 103.625 118.050781 L 115.597656 130.027344 C 115.613281 130.042969 115.632812 130.042969 115.648438 130.027344 L 130.074219 115.601562 C 130.089844 115.582031 130.089844 115.566406 130.074219 115.550781 L 118.101562 103.574219 C 117.820312 103.292969 117.59375 102.976562 117.417969 102.621094 C 117.242188 102.265625 117.128906 101.890625 117.074219 101.496094 C 117.023438 101.105469 117.035156 100.710938 117.109375 100.324219 C 117.183594 99.933594 117.320312 99.566406 117.515625 99.222656 C 119.570312 95.640625 121.144531 91.855469 122.234375 87.875 C 122.339844 87.492188 122.503906 87.132812 122.722656 86.804688 C 122.945312 86.472656 123.214844 86.1875 123.53125 85.945312 C 123.847656 85.703125 124.195312 85.519531 124.574219 85.390625 C 124.949219 85.265625 125.335938 85.199219 125.734375 85.203125 L 142.671875 85.203125 C 142.695312 85.203125 142.710938 85.191406 142.707031 85.167969 L 142.707031 64.757812 C 142.710938 64.734375 142.695312 64.722656 142.671875 64.726562 L 125.722656 64.726562 C 125.328125 64.726562 124.9375 64.664062 124.5625 64.535156 C 124.183594 64.40625 123.839844 64.222656 123.523438 63.980469 C 123.207031 63.738281 122.9375 63.453125 122.714844 63.125 C 122.492188 62.792969 122.328125 62.4375 122.222656 62.050781 C 121.132812 58.070312 119.558594 54.289062 117.507812 50.707031 C 117.308594 50.363281 117.175781 49.996094 117.097656 49.605469 C 117.023438 49.214844 117.011719 48.824219 117.066406 48.429688 C 117.117188 48.039062 117.230469 47.664062 117.40625 47.308594 C 117.582031 46.953125 117.808594 46.632812 118.089844 46.351562 L 130.0625 34.378906 C 130.082031 34.363281 130.082031 34.347656 130.0625 34.332031 L 115.65625 19.878906 C 115.640625 19.863281 115.621094 19.863281 115.605469 19.878906 L 103.632812 31.851562 C 103.351562 32.132812 103.03125 32.359375 102.675781 32.535156 C 102.320312 32.710938 101.945312 32.828125 101.554688 32.878906 C 101.160156 32.933594 100.769531 32.921875 100.378906 32.84375 C 99.988281 32.769531 99.621094 32.632812 99.277344 32.4375 C 95.695312 30.382812 91.914062 28.8125 87.929688 27.722656 C 87.546875 27.617188 87.191406 27.453125 86.859375 27.230469 C 86.53125 27.007812 86.242188 26.738281 86.003906 26.421875 C 85.761719 26.105469 85.574219 25.757812 85.449219 25.382812 C 85.320312 25.003906 85.257812 24.617188 85.257812 24.21875 L 85.257812 7.296875 C 85.257812 7.273438 85.246094 7.265625 85.226562 7.265625 L 64.796875 7.265625 C 64.773438 7.265625 64.765625 7.273438 64.765625 7.296875 L 64.765625 24.238281 C 64.765625 24.636719 64.699219 25.023438 64.574219 25.398438 C 64.445312 25.777344 64.261719 26.125 64.019531 26.441406 C 63.777344 26.757812 63.492188 27.027344 63.160156 27.25 C 62.832031 27.46875 62.472656 27.632812 62.089844 27.738281 C 58.105469 28.832031 54.324219 30.402344 50.742188 32.457031 C 50.394531 32.652344 50.027344 32.789062 49.640625 32.863281 C 49.25 32.9375 48.859375 32.949219 48.464844 32.898438 C 48.070312 32.84375 47.699219 32.730469 47.34375 32.554688 C 46.984375 32.378906 46.667969 32.152344 46.386719 31.871094 L 34.414062 19.898438 C 34.394531 19.882812 34.378906 19.882812 34.363281 19.898438 L 19.917969 34.324219 C 19.902344 34.339844 19.902344 34.355469 19.917969 34.371094 L 31.890625 46.34375 C 32.171875 46.625 32.398438 46.945312 32.574219 47.300781 C 32.75 47.65625 32.863281 48.03125 32.917969 48.421875 C 32.96875 48.816406 32.957031 49.207031 32.882812 49.597656 C 32.808594 49.988281 32.671875 50.355469 32.476562 50.699219 C 30.421875 54.28125 28.851562 58.0625 27.757812 62.046875 C 27.652344 62.429688 27.492188 62.785156 27.269531 63.117188 C 27.046875 63.445312 26.777344 63.734375 26.460938 63.972656 C 26.144531 64.214844 25.796875 64.402344 25.421875 64.527344 C 25.042969 64.65625 24.65625 64.71875 24.257812 64.71875 L 7.335938 64.71875 C 7.3125 64.71875 7.300781 64.730469 7.300781 64.75 L 7.300781 85.15625 C 7.300781 85.179688 7.3125 85.191406 7.335938 85.191406 L 24.277344 85.191406 C 24.671875 85.191406 25.0625 85.253906 25.4375 85.382812 C 25.816406 85.507812 26.160156 85.695312 26.476562 85.933594 C 26.792969 86.175781 27.0625 86.460938 27.285156 86.792969 C 27.507812 87.125 27.671875 87.480469 27.777344 87.863281 C 28.867188 91.847656 30.441406 95.628906 32.492188 99.210938 C 32.691406 99.554688 32.824219 99.921875 32.902344 100.3125 C 32.976562 100.703125 32.988281 101.09375 32.933594 101.484375 C 32.882812 101.878906 32.769531 102.253906 32.59375 102.609375 C 32.417969 102.964844 32.191406 103.285156 31.910156 103.5625 L 19.9375 115.539062 C 19.921875 115.554688 19.921875 115.570312 19.9375 115.589844 L 34.363281 130.042969 C 34.378906 130.0625 34.394531 130.0625 34.414062 130.042969 L 46.386719 118.070312 C 47.089844 117.363281 47.941406 117.003906 48.941406 117 Z M 75.046875 113.597656 C 72.503906 113.609375 69.984375 113.367188 67.492188 112.878906 C 64.996094 112.390625 62.574219 111.660156 60.222656 110.691406 C 57.871094 109.722656 55.640625 108.53125 53.527344 107.121094 C 51.410156 105.707031 49.457031 104.101562 47.660156 102.300781 C 36.804688 91.449219 33.476562 75.425781 38.976562 60.492188 C 39.886719 58.023438 41.046875 55.679688 42.464844 53.464844 C 43.882812 51.246094 45.519531 49.207031 47.382812 47.347656 C 49.242188 45.488281 51.28125 43.847656 53.496094 42.429688 C 55.714844 41.015625 58.058594 39.851562 60.527344 38.941406 C 75.460938 33.4375 91.484375 36.765625 102.339844 47.621094 C 113.195312 58.476562 116.523438 74.496094 111.023438 89.4375 C 110.113281 91.90625 108.949219 94.246094 107.53125 96.464844 C 106.117188 98.679688 104.476562 100.71875 102.617188 102.578125 C 100.753906 104.441406 98.714844 106.078125 96.5 107.496094 C 94.28125 108.914062 91.9375 110.078125 89.46875 110.984375 C 84.816406 112.714844 80.011719 113.585938 75.046875 113.597656 Z M 75.101562 43.535156 C 70.949219 43.558594 66.925781 44.292969 63.039062 45.75 C 61.0625 46.476562 59.1875 47.40625 57.414062 48.539062 C 55.636719 49.671875 54.007812 50.984375 52.515625 52.472656 C 51.027344 53.960938 49.714844 55.589844 48.582031 57.363281 C 47.445312 59.136719 46.515625 61.011719 45.789062 62.988281 C 41.210938 75.417969 43.824219 88.195312 52.789062 97.15625 C 54.234375 98.621094 55.808594 99.929688 57.511719 101.078125 C 59.214844 102.230469 61.019531 103.203125 62.914062 103.992188 C 64.8125 104.785156 66.769531 105.378906 68.789062 105.78125 C 70.804688 106.179688 72.84375 106.378906 74.898438 106.371094 C 79.050781 106.355469 83.074219 105.617188 86.960938 104.160156 C 88.9375 103.433594 90.8125 102.503906 92.585938 101.371094 C 94.359375 100.238281 95.992188 98.929688 97.480469 97.441406 C 98.96875 95.957031 100.28125 94.328125 101.417969 92.554688 C 102.550781 90.78125 103.484375 88.910156 104.210938 86.9375 C 108.789062 74.503906 106.175781 61.730469 97.210938 52.765625 C 95.765625 51.296875 94.191406 49.988281 92.488281 48.835938 C 90.785156 47.6875 88.984375 46.714844 87.085938 45.921875 C 85.1875 45.128906 83.230469 44.53125 81.210938 44.132812 C 79.195312 43.730469 77.160156 43.53125 75.101562 43.535156 Z M 75.101562 43.535156 " fill-opacity="1" fill-rule="nonzero"/></g></svg>