<svg width="15" height="15" viewBox="0 0 15 15" fill="none" xmlns="http://www.w3.org/2000/svg">
<path fill-rule="evenodd" clip-rule="evenodd" d="M9.63619 3.52682C9.55 3.38909 9.423 3.28167 9.27289 3.21949C9.12278 3.15732 8.95703 3.1435 8.79869 3.17994L7.67494 3.43807C7.55978 3.46454 7.44011 3.46454 7.32494 3.43807L6.20119 3.17994C6.04286 3.1435 5.8771 3.15732 5.72699 3.21949C5.57688 3.28167 5.44989 3.38909 5.36369 3.52682L4.75119 4.50432C4.68869 4.60432 4.60432 4.6887 4.50432 4.75182L3.52682 5.36432C3.38933 5.45044 3.28206 5.57722 3.2199 5.72708C3.15774 5.87693 3.14378 6.04242 3.17994 6.20057L3.43807 7.32557C3.46444 7.44053 3.46444 7.55998 3.43807 7.67494L3.17994 8.79932C3.14363 8.95756 3.15753 9.12319 3.2197 9.27317C3.28186 9.42315 3.38921 9.55004 3.52682 9.63619L4.50432 10.2487C4.60432 10.3112 4.68869 10.3956 4.75182 10.4956L5.36432 11.4731C5.54057 11.7549 5.87682 11.8943 6.20119 11.8199L7.32494 11.5618C7.44011 11.5353 7.55978 11.5353 7.67494 11.5618L8.79932 11.8199C8.95756 11.8563 9.12318 11.8424 9.27316 11.7802C9.42315 11.718 9.55003 11.6107 9.63619 11.4731L10.2487 10.4956C10.3112 10.3956 10.3956 10.3112 10.4956 10.2487L11.4737 9.63619C11.6113 9.54991 11.7186 9.42288 11.7807 9.27278C11.8427 9.12268 11.8564 8.95696 11.8199 8.79869L11.5624 7.67494C11.536 7.55978 11.536 7.44011 11.5624 7.32494L11.8206 6.20057C11.8569 6.04239 11.8431 5.87681 11.7811 5.72684C11.719 5.57687 11.6118 5.44994 11.4743 5.36369L10.4962 4.7512C10.3963 4.68858 10.3119 4.60418 10.2493 4.50432L9.63619 3.52682ZM9.32182 6.10619C9.36047 6.03511 9.37005 5.9518 9.34853 5.8738C9.32702 5.7958 9.27609 5.72918 9.20645 5.68797C9.13682 5.64676 9.05392 5.63416 8.97518 5.65283C8.89645 5.6715 8.82803 5.71998 8.78432 5.78807L7.14994 8.55432L6.16307 7.60932C6.13379 7.57926 6.09876 7.5554 6.06006 7.53917C6.02136 7.52294 5.97979 7.51467 5.93783 7.51485C5.89587 7.51504 5.85437 7.52367 5.81582 7.54024C5.77727 7.5568 5.74244 7.58096 5.71343 7.61128C5.68442 7.6416 5.6618 7.67744 5.64694 7.71669C5.63209 7.75593 5.62528 7.79777 5.62694 7.83969C5.6286 7.88162 5.63868 7.92279 5.65659 7.96074C5.6745 7.99869 5.69987 8.03264 5.73119 8.06057L7.00244 9.27869C7.03647 9.31123 7.0774 9.33565 7.12219 9.35015C7.16698 9.36464 7.21446 9.36883 7.26109 9.3624C7.30773 9.35597 7.35231 9.33909 7.3915 9.31301C7.43069 9.28694 7.46349 9.25235 7.48744 9.21182L9.32182 6.10619Z" fill="#238B85"/>
</svg>
