<svg width="9" height="13" viewBox="0 0 9 13" fill="none" xmlns="http://www.w3.org/2000/svg">
<path d="M4.785 0.131096C4.74979 0.0899823 4.70611 0.0569767 4.65694 0.0343471C4.60777 0.0117174 4.55428 0 4.50016 0C4.44603 0 4.39254 0.0117174 4.34337 0.0343471C4.2942 0.0569767 4.25052 0.0899823 4.21531 0.131096C3.22594 1.28828 0 5.28891 0 8.25235C0 11.0139 1.73875 12.7523 4.5 12.7523C7.26125 12.7523 9 11.0139 9 8.25235C9 5.28891 5.77406 1.28828 4.785 0.131096ZM5 11.1273C4.93994 11.1275 4.88072 11.1132 4.82734 11.0857C4.77395 11.0581 4.72796 11.0182 4.69323 10.9692C4.6585 10.9202 4.63605 10.8636 4.62776 10.8041C4.61948 10.7446 4.6256 10.684 4.64563 10.6273C4.6712 10.5535 4.71942 10.4895 4.78344 10.4446C4.84746 10.3998 4.92401 10.3762 5.00219 10.3773C5.49856 10.3763 5.97429 10.1786 6.32528 9.82763C6.67627 9.47664 6.87393 9.00091 6.875 8.50453C6.87386 8.42636 6.8974 8.34981 6.94229 8.28579C6.98718 8.22177 7.05111 8.17354 7.125 8.14797C7.18163 8.12795 7.24224 8.12182 7.30172 8.13011C7.36121 8.13839 7.41784 8.16084 7.46684 8.19557C7.51585 8.23031 7.55579 8.2763 7.58331 8.32968C7.61083 8.38307 7.62513 8.44228 7.625 8.50235C7.62426 9.19831 7.34746 9.86556 6.85533 10.3577C6.36321 10.8498 5.69596 11.1266 5 11.1273Z" fill="#0EA5E9"/>
</svg>
