<svg xmlns="http://www.w3.org/2000/svg" width="119" height="102" viewBox="0 0 119 102" fill="none">
  <path d="M92.9688 57.375C92.9688 77.9141 80.0391 90.8437 59.5 90.8437C38.9609 90.8437 26.0312 77.9141 26.0312 57.375C26.0312 35.3344 50.0242 5.57978 57.3826 -3.0268C57.6445 -3.33259 57.9694 -3.57807 58.3351 -3.74637C58.7008 -3.91468 59.0986 -4.00183 59.5012 -4.00183C59.9037 -4.00183 60.3015 -3.91468 60.6672 -3.74637C61.0329 -3.57807 61.3579 -3.33259 61.6197 -3.0268C68.9758 5.57978 92.9688 35.3344 92.9688 57.375Z" stroke="black" stroke-opacity="0.2" stroke-width="10" stroke-miterlimit="10"/>
  <path d="M79.9531 59.2344C79.9531 63.6726 78.19 67.9291 75.0517 71.0674C71.9134 74.2057 67.657 75.9688 63.2188 75.9688" stroke="black" stroke-opacity="0.2" stroke-width="5" stroke-linecap="round" stroke-linejoin="round"/>
</svg>